<?xml version="1.0" encoding="UTF-8"?>
<svg id="Layer_1" data-name="Layer 1" xmlns="http://www.w3.org/2000/svg" viewBox="0 0 484.6 474.21">
  <defs>
    <style>
      .cls-1 {
        fill: #f5f5f5;
        stroke-width: 0px;
      }
    </style>
  </defs>
  <g>
    <path class="cls-1" d="M233.4,467.82l-.27-.12"/>
    <polygon class="cls-1" points="338.18 28.14 427.88 136.93 427.88 136.94 338.18 28.14"/>
    <path class="cls-1" d="M347.38,0l-215.67,3.51L0,174.32l51.41,209.48,181.72,83.9.27.12,13.84,6.39,192.78-96.74,44.57-211.04L347.38,0ZM427.87,136.92l-164.09-72.61,74.41-36.17,89.69,108.78ZM285.37,26.01l-51.53,25.05-52.76-23.35,104.29-1.7ZM138.19,36.06l66.21,29.31L62.34,134.42l75.85-98.36ZM234.33,78.62l179.74,79.54-355.28,5.79,175.54-85.33ZM72.83,366.15l-39.22-159.79,167.05,218.8-127.83-59.01ZM245.17,442.27L51.85,189.07l393.52-6.41-200.2,259.62ZM418.06,360.52l-127.7,64.07,157.21-203.87-29.52,139.8Z"/>
    <line class="cls-1" x1="285.37" y1="26.01" x2="181.08" y2="27.71"/>
    <line class="cls-1" x1="138.19" y1="36.06" x2="62.34" y2="134.42"/>
  </g>
  <g>
    <line class="cls-1" x1="445.37" y1="182.66" x2="51.85" y2="189.07"/>
    <polygon class="cls-1" points="414.08 158.15 414.07 158.15 58.8 163.94 414.08 158.15"/>
  </g>
  <g>
    <line class="cls-1" x1="447.58" y1="220.72" x2="290.37" y2="424.59"/>
    <line class="cls-1" x1="445.37" y1="182.66" x2="245.17" y2="442.27"/>
  </g>
  <g>
    <line class="cls-1" x1="245.17" y1="442.27" x2="51.85" y2="189.07"/>
    <line class="cls-1" x1="200.65" y1="425.16" x2="33.6" y2="206.36"/>
    <polygon class="cls-1" points="233.4 467.82 233.29 467.91 233.13 467.69 233.4 467.82"/>
  </g>
  <g>
    <line class="cls-1" x1="234.33" y1="78.62" x2="58.8" y2="163.94"/>
    <line class="cls-1" x1="204.39" y1="65.37" x2="62.34" y2="134.42"/>
    <line class="cls-1" x1="338.18" y1="28.14" x2="263.78" y2="64.31"/>
    <line class="cls-1" x1="285.37" y1="26.01" x2="233.84" y2="51.06"/>
  </g>
  <g>
    <polygon class="cls-1" points="234.33 78.62 414.07 158.15 414.08 158.15 234.33 78.62"/>
    <polygon class="cls-1" points="427.88 136.93 427.88 136.94 263.78 64.31 427.87 136.92 427.88 136.93"/>
    <line class="cls-1" x1="204.39" y1="65.37" x2="138.19" y2="36.06"/>
    <line class="cls-1" x1="233.84" y1="51.06" x2="181.08" y2="27.71"/>
  </g>
</svg>