<?xml version="1.0" encoding="UTF-8"?>
<svg id="Layer_1" xmlns="http://www.w3.org/2000/svg" version="1.1" viewBox="0 0 500 500">
  <!-- Generator: Adobe Illustrator 29.3.1, SVG Export Plug-In . SVG Version: 2.1.0 Build 151)  -->
  <defs>
    <style>
      .st0 {
        fill: none;
      }

      .st1 {
        fill: #f5f5f5;
      }
    </style>
  </defs>
  <path class="st1" d="M244.1,256.9h-.3"/>
  <path class="st1" d="M360.4,7.8h-221.1c0,0-137.8,173-137.8,173l49.3,215.5,184.9,89h.3c0,.1,14.1,6.9,14.1,6.9l199.2-96,49.1-215.6L360.4,7.8ZM440.7,149.5l-167-77.1,76.9-35.9,90.1,113h0ZM296.4,33.4l-53.2,24.8-53.7-24.8s106.9,0,106.9,0ZM145.4,41.3l67.4,31.1-146.7,68.4s79.4-99.6,79.4-99.6ZM243.3,86.5l182.9,84.5H62c0,.1,181.3-84.5,181.3-84.5ZM73,378.6l-37.6-164.4,167.6,227-130.1-62.6ZM248.4,459.4L54.4,196.8h403.4c0-.1-209.4,262.7-209.4,262.7h0ZM427,378.5l-131.9,63.6,164.5-206.4-32.5,142.8h0Z"/>
  <line class="st0" x1="296.1" y1="256" x2="191.8" y2="257.7"/>
</svg>