<?xml version="1.0" encoding="utf-8"?>
<!-- Generator: Adobe Illustrator 27.9.6, SVG Export Plug-In . SVG Version: 9.03 Build 54986)  -->
<svg version="1.1" id="Layer_1" xmlns="http://www.w3.org/2000/svg" xmlns:xlink="http://www.w3.org/1999/xlink" x="0px" y="0px"
	 viewBox="0 0 1000 1000" style="enable-background:new 0 0 1000 1000;" xml:space="preserve">
<style type="text/css">
	.st0{fill:#6B7280;}
</style>
<g>
	<path class="st0" d="M524.1,261.19l170.77,74.2l31.32,182.93l257.94-409.73L524.1,261.19z M547.32,262.23l405.77-134.6
		L697.75,327.59L547.32,262.23z M703.05,333.98l255.18-199.84L730.71,495.55L703.05,333.98z"/>
	<path class="st0" d="M43.82,748.76c-7.17,6.94-14.28,14.14-21.15,21.38l-6.8,7.17l14.35,13.6l6.8-7.17
		c6.67-7.04,13.59-14.03,20.56-20.78l7.1-6.88l-13.76-14.2L43.82,748.76z"/>
	<path class="st0" d="M266.82,529.69c-13.86,14.42-25.8,32.15-35.5,52.68l-4.22,8.94l17.88,8.44l4.22-8.94
		c8.78-18.59,19.51-34.55,31.88-47.43l6.85-7.13l-14.26-13.7L266.82,529.69z"/>
	<path class="st0" d="M364.14,577.57c-20.35,1.19-41.08,4.44-61.61,9.66l-9.58,2.43l4.87,19.16l9.58-2.44
		c19.32-4.91,38.8-7.97,57.9-9.08l9.87-0.58l-1.16-19.74L364.14,577.57z"/>
	<path class="st0" d="M310.58,845.98l-8.49-5.06l-10.12,16.98l8.49,5.06c18.62,11.1,38.37,19.15,58.71,23.91l9.62,2.26l4.51-19.25
		l-9.62-2.26C345.58,863.38,327.22,855.9,310.58,845.98z"/>
	<path class="st0" d="M137.78,670.22c-18.81,13.88-35.03,27.12-48.05,37.75l-7.66,6.25l12.5,15.31l7.66-6.25
		c12.86-10.5,28.86-23.57,47.29-37.16l7.95-5.87l-11.74-15.91L137.78,670.22z"/>
	<path class="st0" d="M238.45,760.2l-3.38-9.29l-18.58,6.76l3.38,9.29c7.5,20.63,18.2,39.22,31.78,55.26l6.39,7.54l15.08-12.78
		l-6.39-7.54C254.67,795.19,245.15,778.63,238.45,760.2z"/>
	<path class="st0" d="M227.21,703.82c-0.23-4.11-0.35-8.31-0.35-12.48c0-15.03,1.49-30.29,4.42-45.38l1.89-9.7l-2.9-0.56
		c7.19-3.62,14.34-6.98,21.42-10.07l9.06-3.95l-7.9-18.12l-9.06,3.95c-18.06,7.87-36.53,17.44-54.91,28.45l-8.48,5.08l10.16,16.96
		l8.48-5.08c4.04-2.42,8.09-4.77,12.13-7.04c-2.72,15.12-4.1,30.4-4.1,45.47c0,4.54,0.13,9.11,0.38,13.58l0.55,9.87l19.74-1.1
		L227.21,703.82z"/>
	<path class="st0" d="M515.52,479.75l-6.85-18.55l-9.27,3.42c-2.53,0.93-5.1,1.85-7.64,2.73c-16.53,5.71-32.57,10.02-49.03,13.18
		l-9.71,1.86l3.72,19.42l9.71-1.86c17.41-3.33,34.34-7.88,51.77-13.91c2.67-0.92,5.37-1.89,8.03-2.87L515.52,479.75z"/>
	<path class="st0" d="M537.53,636.46l-5.13-8.45l-16.9,10.26l5.13,8.45c8.86,14.6,14.54,32.98,16.42,53.16l0.92,9.84l19.68-1.83
		l-0.92-9.84C554.58,674.91,547.94,653.61,537.53,636.46z"/>
	<path class="st0" d="M602.73,407.88c-15.97,11.99-32.67,22.82-49.64,32.17l-8.66,4.77l9.54,17.31l8.66-4.77
		c17.78-9.8,35.26-21.13,51.97-33.68l7.9-5.94l-11.87-15.81L602.73,407.88z"/>
	<path class="st0" d="M532.76,756.83c-4.58,19.16-11.99,36.86-22.02,52.63l-5.31,8.34l16.68,10.61l5.31-8.34
		c11.21-17.62,19.48-37.36,24.57-58.65l2.3-9.61l-19.23-4.6L532.76,756.83z"/>
	<path class="st0" d="M471.95,850.11c-3.61,2.46-7.37,4.75-11.2,6.8c-12.58,6.77-26.26,11.3-40.66,13.48l-9.77,1.48l2.95,19.55
		l9.77-1.48c16.65-2.51,32.49-7.77,47.07-15.61c4.43-2.38,8.79-5.03,12.96-7.88l8.17-5.57l-11.13-16.34L471.95,850.11z"/>
	<path class="st0" d="M378.77,487.6c-20.98,1.28-39.1,2.38-56.99,7.64l-9.48,2.79l5.58,18.97l9.48-2.79
		c15.74-4.63,32.82-5.67,52.61-6.88l15-0.93l-1.23-19.73L378.77,487.6z"/>
	<path class="st0" d="M426.14,579.11l-9.84-0.89l-1.79,19.69l9.84,0.89c22.98,2.08,40.66,6.16,55.64,12.83l9.03,4.02l8.05-18.06
		l-9.03-4.02C471.02,585.99,451.35,581.39,426.14,579.11z"/>
	<path class="st0" d="M668.28,348.22c-6.65,7.22-13.48,14.23-20.3,20.85l-7.09,6.89l13.77,14.18l7.09-6.89
		c7.08-6.88,14.17-14.16,21.06-21.64l6.7-7.27l-14.54-13.4L668.28,348.22z"/>
</g>
</svg>
