<?xml version="1.0" encoding="UTF-8"?>
<svg id="Layer_1" xmlns="http://www.w3.org/2000/svg" version="1.1" viewBox="0 0 500 500">
  <!-- Generator: Adobe Illustrator 29.4.0, SVG Export Plug-In . SVG Version: 2.1.0 Build 152)  -->
  <defs>
    <style>
      .st0 {
        fill: #f5f5f5;
      }
    </style>
  </defs>
  <path class="st0" d="M472.6,397.3c-22,22.4-59.3,21.2-88.9,22.9-85.7,5-172.5,4.9-258.2.4s-63-1.4-83.5-12.7c-33.3-18.4-34.5-54.7-37.3-88.7-4-48.6-4.3-98,.4-146.7,2.9-29.6,5.4-58.6,31.4-77.2,21.1-15,61-14.6,86.5-15.9,85.5-4.5,172.2-4.6,257.7.4,43.2,2.6,93.7.7,107.5,51.5,6.9,25.2,8.1,55.5,9.2,81.7,1.6,37.8,1.2,76.3-2.5,114-2.3,23.8-5,52.5-22.4,70.3h0ZM200.5,324l128.9-73.7-128.9-74.2v147.9Z"/>
</svg>