<?xml version="1.0" encoding="UTF-8"?>
<svg id="Layer_2" data-name="Layer 2" xmlns="http://www.w3.org/2000/svg" xmlns:xlink="http://www.w3.org/1999/xlink" viewBox="0 0 1000 1000">
  <defs>
    <style>
      .cls-1 {
        fill: url(#linear-gradient);
      }

      .cls-2 {
        fill: #f5f5f5;
      }
    </style>
    <linearGradient id="linear-gradient" x1="68.32" y1="305.43" x2="980" y2="716.34" gradientUnits="userSpaceOnUse">
      <stop offset="0" stop-color="#8a6ffc"/>
      <stop offset=".5" stop-color="#bb95ea"/>
      <stop offset="1" stop-color="#e2b2da"/>
    </linearGradient>
  </defs>
  <rect class="cls-1" width="1000" height="1000"/>
  <g>
    <path class="cls-2" d="M721.95,601.43h-9.17v-.63c.05-.46.09-.92.09-1.39v-266.25c0-7.8-6.32-14.11-14.11-14.11h-53.14c-7.8,0-14.11,6.32-14.11,14.11v1.42c-.06.51-.09,1.02-.09,1.54v55.7h-48.28c-7.8,0-14.11,6.32-14.11,14.11v1.42c-.06.51-.09,1.02-.09,1.54v37.73h-46.74c-7.8,0-14.11,6.32-14.11,14.11v1.42c-.06.51-.09,1.02-.09,1.54v23.6h-48.99c-7.8,0-14.11,6.32-14.11,14.11v1.42c-.06.51-.09,1.02-.09,1.54v14.64h-48.85c-7.59,0-13.75,6.16-13.75,13.75v1.45c-.05.5-.09,1-.09,1.52v65.68h-10.99c-1.98,0-3.59,1.61-3.59,3.59v10.85c0,1.98,1.61,3.59,3.59,3.59h350.84c1.98,0,3.59-1.61,3.59-3.59v-10.85c0-1.98-1.61-3.59-3.59-3.59ZM440.51,597.38c0,1.5-.59,2.85-1.53,3.86h-41.06c-.94-1.02-1.53-2.37-1.53-3.86v-59.85c0-3.16,2.56-5.72,5.72-5.72h32.68c3.16,0,5.72,2.56,5.72,5.72v59.85ZM503.42,597.38c0,1.5-.59,2.85-1.53,3.86h-40.62c-.94-1.02-1.53-2.37-1.53-3.86v-89.37c0-3.16,2.56-5.72,5.72-5.72h32.24c3.16,0,5.72,2.56,5.72,5.72v89.37ZM568.04,597.38c0,1.5-.59,2.85-1.53,3.86h-41.8c-.94-1.02-1.53-2.37-1.53-3.86v-127.63c0-3.16,2.56-5.72,5.72-5.72h33.43c3.16,0,5.72,2.56,5.72,5.72v127.63ZM632.67,597.38c0,1.5-.59,2.85-1.53,3.86h-42.98c-.94-1.02-1.53-2.37-1.53-3.86v-185.89c0-3.16,2.56-5.72,5.72-5.72h34.6c3.16,0,5.72,2.56,5.72,5.72v185.89ZM696.65,597.38c0,1.5-.59,2.85-1.53,3.86h-42.4c-.94-1.02-1.53-2.37-1.53-3.86v-254.39c0-3.16,2.56-5.72,5.72-5.72h34.02c3.16,0,5.72,2.56,5.72,5.72v254.39Z"/>
    <g>
      <path class="cls-2" d="M299.3,857.77c-41.17,0-74.67-33.5-74.67-74.67s33.5-74.67,74.67-74.67,74.67,33.5,74.67,74.67-33.5,74.67-74.67,74.67ZM299.3,726.96c-30.96,0-56.14,25.18-56.14,56.14s25.18,56.14,56.14,56.14,56.14-25.18,56.14-56.14-25.18-56.14-56.14-56.14Z"/>
      <path class="cls-2" d="M321.74,933.89h-44.87c-10.92,0-19.81-8.89-19.81-19.81v-12.58c-3.89-1.45-7.73-3.09-11.49-4.93l-9.02,9.02c-3.74,3.74-8.71,5.8-14.01,5.8s-10.26-2.06-14.01-5.8l-31.72-31.73c-3.74-3.74-5.8-8.72-5.8-14s2.06-10.27,5.8-14.01l9.58-9.58c-1.65-3.56-3.14-7.21-4.46-10.93h-13.61c-10.92,0-19.81-8.89-19.81-19.81v-44.86c0-10.92,8.89-19.81,19.81-19.81h13.61c1.32-3.72,2.81-7.36,4.46-10.93l-9.58-9.58c-7.72-7.72-7.72-20.29,0-28.01l31.72-31.72c3.74-3.74,8.72-5.8,14.01-5.8s10.27,2.06,14.01,5.8l9.02,9.02c3.76-1.84,7.6-3.48,11.49-4.93v-12.59c0-10.92,8.89-19.81,19.81-19.81h44.87c10.92,0,19.81,8.89,19.81,19.81v11.49c4.26,1.45,8.44,3.12,12.51,5.01l8-8c3.74-3.74,8.72-5.8,14.01-5.8s10.27,2.06,14.01,5.8l31.72,31.72c7.72,7.72,7.72,20.29,0,28.01l-7.44,7.44c2.07,4.25,3.9,8.61,5.49,13.07h10.45c10.92,0,19.81,8.89,19.81,19.81v44.86c0,10.92-8.89,19.81-19.81,19.81h-10.45c-1.58,4.45-3.42,8.82-5.49,13.07l7.44,7.44c7.72,7.72,7.72,20.29,0,28.01l-31.73,31.73c-3.74,3.74-8.71,5.8-14.01,5.8s-10.26-2.06-14.01-5.8l-8-8c-4.07,1.89-8.25,3.56-12.51,5.01v11.48c0,10.92-8.89,19.81-19.81,19.81ZM242.25,873.69l6.12,3.43c6.62,3.71,13.58,6.7,20.69,8.9l6.53,2.02v26.05c0,.71.57,1.28,1.28,1.28h44.87c.71,0,1.28-.57,1.28-1.28v-25.36l6.78-1.89c7.56-2.1,14.87-5.02,21.73-8.68l6.06-3.24,17.57,17.57c.31.31.66.37.9.37s.59-.07.9-.37l31.73-31.73c.5-.5.5-1.31,0-1.81l-17.21-17.21,3.43-6.12c3.92-6.99,7.05-14.44,9.31-22.15l1.95-6.66h24.12c.71,0,1.28-.57,1.28-1.28v-44.86c0-.71-.57-1.28-1.28-1.28h-24.12l-1.95-6.65c-2.26-7.71-5.39-15.16-9.31-22.15l-3.43-6.12,17.21-17.21c.5-.5.5-1.31,0-1.81l-31.72-31.72c-.31-.31-.66-.37-.9-.37s-.59.07-.9.37l-17.57,17.57-6.06-3.24c-6.85-3.66-14.16-6.58-21.73-8.68l-6.78-1.89v-25.36c0-.71-.57-1.28-1.28-1.28h-44.87c-.71,0-1.28.57-1.28,1.28v26.05l-6.53,2.02c-7.11,2.19-14.07,5.19-20.69,8.9l-6.12,3.43-18.8-18.8c-.31-.31-.66-.37-.9-.37s-.59.07-.9.37l-31.72,31.72c-.31.31-.38.66-.38.91s.07.6.38.91l19.15,19.15-3.24,6.06c-3.42,6.41-6.21,13.23-8.27,20.27l-1.95,6.65h-27.29c-.71,0-1.28.58-1.28,1.28v44.86c0,.71.57,1.28,1.28,1.28h27.29l1.95,6.66c2.07,7.04,4.85,13.87,8.27,20.27l3.24,6.06-19.15,19.15c-.31.31-.38.66-.38.91s.07.59.38.9l31.72,31.73c.31.31.66.37.9.37s.59-.07.9-.37l18.8-18.8Z"/>
    </g>
    <g>
      <path class="cls-2" d="M367.51,202.28h-75.31c-8.77,0-15.88,7.11-15.88,15.88v397.89c7.51-1.07,15.18-1.64,22.98-1.64.21,0,.41,0,.62,0V248.83c0-9.06,7.35-16.41,16.41-16.41h51.18v-30.14Z"/>
      <path class="cls-2" d="M802.14,202.28h-88.73v-23.81h-6.46v53.95h71.06c9.06,0,16.41,7.35,16.41,16.41v438.83h-142.99c-7.4,0-13.36,6.07-13.22,13.47,1.04,54.29,2.07,108.59,3.11,162.88h-207.2c-7.46,11.35-16.3,21.71-26.31,30.82,85.12.5,170.24,1,255.36,1.49,51.41-56.34,102.81-112.68,154.22-169.02.21-169.72.41-339.44.62-509.16,0-8.77-7.11-15.88-15.88-15.88ZM714.25,797.55l-44.93,50.05c-1.3,1.45-3.7.55-3.73-1.39-.8-42.05-1.6-84.1-2.41-126.15-.02-1.2.94-2.18,2.14-2.18h115.67c1.15,0,1.97.85,2.12,1.82l-68.85,77.85Z"/>
    </g>
    <g>
      <path class="cls-2" d="M375.9,168.47h-90.89c-23.96,0-43.44,19.49-43.44,43.44v428.47c6.46-2.62,13.14-4.81,20-6.54V211.92c0-12.93,10.52-23.44,23.44-23.44h90.89v-20Z"/>
      <path class="cls-2" d="M808.04,168.47h-92.71v20h92.71c12.93,0,23.44,10.52,23.44,23.44v679.88c0,12.93-10.52,23.44-23.44,23.44h-429.76c-14.61,8.75-30.79,15.15-48.01,18.67,159.26.44,318.52.89,477.77,1.33,23.96,0,43.44-19.49,43.44-43.44V211.92c0-23.96-19.49-43.44-43.44-43.44Z"/>
    </g>
    <g>
      <path class="cls-2" d="M676.17,109.72h-84.85c-5.58-25.7-28.44-44.95-55.81-44.95-9.86,0-19.14,2.5-27.23,6.89-1.62.88-3.19,1.83-4.71,2.86-2.28,1.54-4.44,3.24-6.47,5.08-1.35,1.23-2.65,2.52-3.88,3.88-4.92,5.41-8.81,11.77-11.37,18.77-.89,2.42-1.6,4.91-2.16,7.47h-84.84c-22.64,0-41.05,18.42-41.05,41.05v86.95c0,22.64,18.42,41.05,41.05,41.05h281.33c22.64,0,41.05-18.42,41.05-41.05v-86.95c0-22.64-18.42-41.05-41.05-41.05ZM693.23,237.72c0,9.4-7.65,17.05-17.05,17.05h-281.33c-9.4,0-17.05-7.65-17.05-17.05v-86.95c0-9.4,7.65-17.05,17.05-17.05h101.22c-1.01-3.57-1.56-7.32-1.56-11.21,0-20.8,15.48-37.97,35.55-40.64.26-.04.52-.07.78-.1.31-.03.62-.07.93-.1.38-.03.76-.06,1.13-.09.24-.01.47-.03.71-.04.63-.03,1.27-.05,1.91-.05h0c.64,0,1.27.02,1.91.05.24.01.47.03.71.04.38.02.76.05,1.13.09.31.03.62.06.93.1.26.03.52.06.78.1,20.07,2.67,35.55,19.84,35.55,40.64,0,3.89-.55,7.65-1.56,11.21h101.22c9.4,0,17.05,7.65,17.05,17.05v86.95Z"/>
      <circle class="cls-2" cx="535.51" cy="120.14" r="26.75"/>
    </g>
  </g>
</svg>