<?xml version="1.0" encoding="UTF-8"?>
<svg id="Layer_1" xmlns="http://www.w3.org/2000/svg" xmlns:xlink="http://www.w3.org/1999/xlink" version="1.1" viewBox="0 0 500 500">
  <!-- Generator: Adobe Illustrator 29.3.1, SVG Export Plug-In . SVG Version: 2.1.0 Build 151)  -->
  <defs>
    <style>
      .st0 {
        fill: none;
      }

      .st1 {
        fill: #323534;
      }

      .st2 {
        fill: #f0f0f1;
      }

      .st3 {
        fill: #e94e98;
      }

      .st4 {
        fill: #666b66;
      }

      .st5 {
        fill: #2f6641;
      }

      .st6 {
        fill: #555b58;
      }

      .st7 {
        fill: #3f4c50;
      }

      .st8 {
        fill: #3e4341;
      }

      .st9 {
        fill: #9eb655;
      }

      .st10 {
        fill: #939c98;
      }

      .st11 {
        fill: #a54c77;
      }

      .st12 {
        fill: #9faba2;
      }

      .st13 {
        fill: #294353;
      }

      .st14 {
        fill: #61312f;
      }

      .st15 {
        fill: #4d4b9b;
      }

      .st16 {
        clip-path: url(#clippath);
      }

      .st17 {
        fill: #3a8c47;
      }
    </style>
    <clipPath id="clippath">
      <circle class="st0" cx="250" cy="250" r="248.4"/>
    </clipPath>
  </defs>
  <g class="st16">
    <circle class="st2" cx="250" cy="250" r="248.7"/>
    <g>
      <path class="st2" d="M499.2,57.2v496.8H2.4V57.2h496.8ZM269.5,107.5c-6.9-1.6-11.8.5-18,3.3-4.8,2.2-7.5,1.8-13.3,3.1s-5.1-1.5-4.4,2.5c-4.4-2-2.6-.1-3.2.8s-1.2,1-1.6,1.6c-5.1-.5-8.3,0-13,1.6s-4.7.2-4.1,2.4c-11,.9-22.4,6.3-31.9,11.5s-7.9,7.2-11.1,12.8-1.1-.3-1.6.6-.2,3.3-1.6,4.3c-.4-1.3-.3-1.9,0-3.2-2.7-3.2-2.8,12.8-3.3,14s-1.7.9-2.2,2-1.3,6.1-1,7.6,2.3,1.9,1.5,3.1-1.4,0-1.5.6c-.2.9.7,2.5.9,3.6s0,.5,0,.8l-1.6,3.2-1.6-2.4c.8,5.2-2.2,11-2.5,15.9s.8,2.9.8,3.6c.2,2-2.8,3.5-2.4,4,2.9.2,2.6,2.6,2.4,4.9-1.9,0-5.2,3.5-1.8,3.4,0,.4-.7.6-.7.7-3.1-1.2-4.7,1.2-5.7,1.6s-3.2-.6-4.1,1.2c-.4,2,4.3,1.3,1.6,4.4-3.1.7-1,1.1-1.6,1.6s-4.7-1.1-4,1.2,4.6,5.3,6.5,6.1l-.8,1.6c-.4-.1-5-.6-4.1,1.2s3.4,1.8,4.5,2.8,2.1,3.2,3.6,4.9,2.1,2.5,4.9,4.1c-1.3,2.4,0,3.5.8,5.7-.3.1-.5.7-.8.8-2,1-5.3.6-4.9,4.9.6.6,11.2-1.1,9.7,4-5.9,1.1-3.8,4.3,1.6,3.3-1.1,2-1.3,4.3-2.3,6.2s-2.8,2.4-2.6,4.3c7,2.7.5,3.4-.5,6.4s-.3,6.9-.4,9.8,0,.5,0,.8c-3-.4-3.6-.1-4,2.9-.6,4.8-.7,12.3,1.5,16.6-3,.3-4.3,1.5-6.5,2.4-3.6,1.4-3.4-1-4.9,4.1-3,1.7-3.8,4-5.1,7.5-3.4,9.2-4.5,20.2-6.3,29.8-.9.5-2,1.4-2.4,1.6-2.2.9-5.4.6-7.3,2.4-6.3,0-9,.8-14.6,1.6-4.6.6-5.5-.5-10.6,1.6-9.7,4-6.2,9.7-12.2,16.2-8.7,5.3-24.5,17.5-30,25.9-5.2,1-6,5.1-6.5,9.7-.3.2-.5.6-.8.8-5,2.9-2.4,2.4-4.5,5.6s-2.4,3.1-3.6,4.9-2.1,4-3.2,5.7-2.4,1.7-3.2,2.8c-4,5.4-2.4,16.9-2.4,23.9s0,2.2,0,3.2c0,8.6-.2,17.3,0,25.9s0,4.3,0,6.5c12-1.7,24.1-.6,35.7,2.4,2.4.6,5.4,2.8,7.8,3.2,6.3,1,17,0,23.9,0l364.5-.4v-109.8c0-.1-1.5,0-2.3-.5-5.1-2.9-7-3.8-12.3-6-5.9-2.5-11.9-5-17.9-7.3,1.5-9.8-1.3-20.1-1.6-30,0-2.1,2.6-7.1-2.4-6.5-.8-1.9-3.9-7.7-5.2-8.9-2.3-2-5-1.6-6.9-2.4s-3.3-3.6-6.1-3.3l-16.7,1.6c-.3,0-.5,0-.8,0-2.6-.2-7.4-.8-9.3-.8h-29.2c-2,0-6.7-.6-9.3-.8,2.4-1.3,6.6-10,7.7-10.5,2.3-1.1.8,5.1,3.6,4,1.2-3.6-2-4.9-2.9-7.3s-.2-2.3-.4-3.3c1.7.2,3.2.7,4.9.8h.8c-.2,1,0,2.2,0,3.2,5,.4,4.8-5.6,3.2-8.9,3-4.5,4.9-6,4.1-12.2s-3.4-4-4.5-5.7c-2.3-3.7,1.9-11,3.1-14.7s.5-6,1.9-8.6,10.3-5.4,12.9-8.3,2-5,2.8-8.1c5.3-10.2,4.6-23.1,2.2-34.2-1.4-6.7-2.2-5.3-2.2-13.1s-.6-20.2-4.1-29.6l-1.6,1.6c-.3-6.4-.6-9.4-5.7-13.8-.9-3.7-3.8-12.3-6.9-14.6s-2.8-.8-3.3,1.7c-1.8-2.7-3.2-6.7-6-8.6s-3.5-.9-4.1-1.2.4-.8.2-1.6-1.3-1.2-1.1-1.6,2.5-.3,2.4-1.6c-1.9,0-3.8-.5-5.7-.8-4.6-2.1-12.9-5.9-17.9-6.5-.8-2.3-3.2-1.2-4.9-2.1s-.6-1.9-4.9-2.8-4.4.3-6.5-.8l.8-1.6c-3.7-.3-7.6-1.8-11-2.4s-4.8.2-7.2-.1-2.7-2.7-7.5-.9-1.1,2.1-2.7,1.8c-4.4-.6-7.1-.8-11.4.8v-.8c1.2-2.3,2.4-1.3,4.1-1.6s1.6-.7,2.8-.9,8.5,1,6.1-2.4-9.9-.7-11.4,1.6Z"/>
      <g>
        <g>
          <path class="st4" d="M250,148.8c.5,0,1.2.1,1.6,0,.4,6.4,4.2,3.9,7.1,4.3,5,.6,10.5,4.8,15.2,6.3s13.1,2.5,19.2,4.4c4.4,1.3,9.3,4.2,12.9,6.5s1.2,2.7,2.1,3.6,2.6.7,3.6,2.1c1.8,2.5,2.6,8.4,4.1,11.3-6.2-1.7-1.8,3-1.1,6,2.8,12.8,7.6,20.3,11.9,31.9,2.3,6.3,1.2,12.2,1.5,18.8s2.2,9.9,0,14.2c-.5-1.3-2.8-4.8-4.1-5.7,1.3,3.3-4.8,7.4-4.9,7.9-.3,1.5.4,3.1-.4,5.1s-6.4,6.9-4.9,9.8,2.8,1.4,2.9,2.1c.3,2-3.4,4.3-3.3,7.3s2.7,1.3,2.5,3.1-2.4,7.4-3.1,9.1-3.6,2.5-1.8,6.7l3.2-.8c2,4.2-3.1,8.2-3.2,10.1s1.3,4.1.8,6.1c4.1,1,3.9-1.3,5.8-2.8,3.4-2.7,4.8-3.5,6.1-8.5s0-3.2,2-6.5c3.2,1.3,3.4.5,5.7,3.2-7.7-1.5-4.6,1-2.4,4.9s1.9,3.2,1.7,4.4-1.6.4-1.7.5l-2-4c-2.1,1.3-2.4,4.1-3.7,5.7s-7.1,6.7-5.7,8.1c18,1.9,36.1.9,54,2.5l15.8-1.7c.3,0,.5,0,.8,0,12.7.8,7.9,3.8,14.6,10.5,0,2.2.2,5.4,2.4,6.5.3,7.7,1.3,15.2,1.6,22.7-5-.9-11.7-3.7-16.2,0-1-.3-6.2-.9-7.3-.8.4-2-1.4-2-2.7-2.5-13.3-5.9-28-10.5-42.6-11.8-6.5-4.8-6-14.2-12.8-19.6-1.9-.3-1.1.8-1.2,2-.4,5.2-.3,10.8-.8,15.8-3.3-5.6-4.5-13.7-11.4-16.2-1.6,11.5-.6,22.3-4.3,33.4-4.5,13.6-12.7,21.7-18.8,33.9s-4.8,10.2-6.6,14.5,0,3.3-.8,4.9-3.4,2.3-4.5,3.3c-3.2-4.2.7-7.1-6.7-5.5s-13.9,7.5-12.7,11.4,2,1.8,2.2,2.7-.7,1-.7,1.1c-6.2-3.6-11.5-10.3-15.4-16.2,7.5-1.7,5.6-10,7.7-13s9.8-1.8,7.7-4.1-10.5-2.8-12.2-3.6.8-1.2.9-1.6c0-.6-4-9.3-4.9-10.5-4.9-6.8-18.3-12.8-24.3-19.9s-2-2.4-2.4-3.2c5,1.4,12.5,6.5,17.5,6.5s17.3-6.9,18.1-8.3,1.8-6.4,1.8-6.8c0-1.1-.5-2.9-1.2-3.6-2.4-2.3-18.4-1.3-18.3-8.5s5.9-1,7.7-1.2,10.7-5.3,6.1-8.1c12.3.9,21.2,2.1,33.3-.8,1.6-.4,14.9,2.1,10.6-3.6s-10.3.2-12.2.3c-9.8.6-21.1-1.2-29.2,0,2.3-1.5,1.9-6.6-.5-7.2s-7.6,3.3-8.8,4c-2.3.9-1-4.6-.6-5.5.7-1.7,3.5-3.3,3.4-5.5s-3.2-2.8-2.4-5.2c9.8-1.4,7.9-7.3,8.1-15s-.1-6,0-8.9c.4-16.8,3.4-26.5.9-43.9-.7-4.8,3.3-8.3,2.4-13.3h2.4c0,3.6-.2,6.9,4.3,5.5,1.8-3.2,6.3-4.7,8.3-7.1s1.2-3.1,2.3-4.2c1.8-1.7,5.5-1.4,6.9-3.7s.7-3.5,1.3-5.2,2.3-2.5,2.1-4.4-2.7-1.9-3.2-3.4-.3-4.8,0-6.3c.7-4.8,6.1-10.7,7.5-15.2s1.3-8,1.2-9c-.9-6.1-8.5-4.9-12.4-5.5s-9.7-1-12.9-1.7-3.4-2.6-5.4-3.5-12.7-3.4-15.1-3.6c-5-.4-11,3-16.1,3.2-3.7.1-5.9-1.2-9.3-1.7l.8,2.4c-2.1,0-3.7,1.2-5.7,1.6s-3.2-.3-5.5.6c-3.6,1.5-4.4,6.8-8.3,7.5,0-.2-.9-1-.8-1.6,1.4-1.6,3-3.5,3.2-5.7,2.5-.6,4.7-4.1,5.7-6.5,3.5,0,8-1.8,11.4-3.2.1,2.2-.9,2.5,1.7,2.1s6.9-1.5,8.1-2.9.6-.5.8-.8c3.2-.8,4.8,0,4.1-4.1.4,0,1-.9,1.6-.8-.2,1.7-.8,3.2-.8,4.9,6.9-.4,5.2-.4,5.7-5.7s.4-.7.8-.8c.3,3.2,0,3,2.4,4.1s.2,1.2,1.6.8l.4-5.7c2.5,4.3,4.7,7.4,9.8,8.9-.8-1.9-1.2-2.6-1.2-4.8ZM288.8,225.2c-3.1.2-18.2,3.2-16.9,7.4s12.6.7,14.6,0,7.9-4.3,8-5c.5-3-4.2-2.6-5.8-2.5ZM277.6,239.6c-3.4.3-16.2,3-17.5,5.7-3.4,7.1,3.6,5.6,4.9,8.1s-3.5,5,.3,6.9c5.6,2.8,4.4-4.9,5-7.1.4-1.4,2.7-2.5,2.9-4.4s-1-2.9-.6-4.5,4-2.7,4.8-4.6ZM283.1,242.2c-5.7,1.1-5.7,9.1-2.5,10.2,5.9,2,9.1-1.4,13.5-3.3s4.1-.1,5.5-1.8c-3.1-4.7-11.1-6.1-16.4-5.1ZM236.2,370.9c4,1.2,8.7.3,12.5.9s3.4,1.8,5.1,2.2c2.7.6,16.5,0,15.6-4.3s-12-.6-14.2-.6c-6.3,0-11.1-.7-17.9.2-1.1.1-2.5.5-1.2,1.6Z"/>
          <path class="st9" d="M410.8,326.3c.7,2.8,2.4,4.4,3.2,7.3s-.4,5.5,2.4,7.3c0,.2.7.6.7,1.3,1.2,9.5,1.8,19.1,1.7,28.7-.3-.2-2,.1-3.2-.4-2.9-1.4-5.7-4.2-9-5.2,0-.3,0-.5,0-.8-.3-7.5-1.4-15-1.6-22.7,0-1.6.3-3.8,0-5.1s-2-.8-2.5-1.4c-6.7-6.8-2-9.8-14.6-10.5l16.7-1.6c2.8-.3,4.2,2.4,6.1,3.3Z"/>
          <path class="st3" d="M422.9,337.7c.9,2,.8,4.7,2.4,6.5.4,9.9,3.2,20.2,1.6,30-3.9-1.5-4.6-1.2-8.1-3.2.1-9.6-.5-19.2-1.7-28.7,0-.7-.7-1.1-.7-1.3-.4-3.1,1.6-6.6-2.4-7.3-.9-2.9-2.6-4.5-3.2-7.3,2,.8,4.7.4,6.9,2.4s4.4,7,5.2,8.9Z"/>
          <path class="st4" d="M422.9,337.7c5-.6,2.4,4.4,2.4,6.5-1.6-1.8-1.6-4.5-2.4-6.5Z"/>
          <path class="st8" d="M323.1,347.4c0,.5,0,1.1,0,1.6-1.4,13.5-6,21.9-12.9,32.9-6.5,10.4-14,23.5-16.9,35.7s.1,1.1.5,1.5l-4.8-.4c.7-.4,2.5-3.2,4.1-3.7.3-2-1.3-1.3-2.4-.8-2.4,1.1-5.2,4-7.3,5.6.7.9,3.3,0,4.1-.4-2.5,5.3-10.4,9.1-11.8,15.4-.5,2.1.7,3.7.4,5.9-.5,4.8-2.8,9.5-3.2,14.3-1.4,0-.9-3.6-.8-4.5s1-4.3.9-4.4-1.8,0-2.9-.8c-2.3-1.7-2.1-4.9-6.1-6.5.8-6.8,8.1-13.4,13-17.8s3.6-1.4,4.5-3.3.2-3.4.8-4.9c1.8-4.2,4.5-10.3,6.6-14.5,6.1-12.2,14.3-20.3,18.8-33.9,3.7-11.1,2.7-21.9,4.3-33.4,6.9,2.5,8.1,10.6,11.4,16.2ZM282.1,420.3v.8c.5-.3.5-.5,0-.8Z"/>
          <path class="st10" d="M215.9,358.7c.4.9,1.7,2.4,2.4,3.2-1.4,2.3,1.4,8.2,2.5,10.7,3.4,7.9,7.2,17.3,11.4,25.2,2.8,5.2,8.1,10.3,8.8,16.8-5.7.1-6.9-1.2-10.5-5.3-8.6-9.8-11.9-23.3-19.5-33.6-.8-2.4-1.6-4.2-2.4-6.5-2.8-7.1-5.6-12-6.5-19.9s.5-6.7-.2-9.5c-1.8-6.9-12.2-18.1-15.2-28.2s.1-1.2,0-1.6c13.2-1.4,11,2,15.8,10.6,3.7,6.6,8.4,12.9,10.6,20.2s0,12,2.8,17.9Z"/>
          <path class="st6" d="M241.1,414.7c.8,0,1.8.1,2.4,0,3.9,5.9,9.3,12.6,15.4,16.2.5,3.7,1.6,2.7,2.8,4.9s-1,1.9,2,3.2c-.2,1.6.2,3.3,0,4.9-2-.7-1.8,2-2.4,4.1-5.8-.5-8.8-8-12.6-12.2-10.2-11.2-17-17.5-24.8-30.8-.3-.5-.5-1.1-.8-1.6-.6-1.1-1.7-1.9-2.3-2.9-1.8-3.2-3-8.6-5.8-11.6,0-3.2-2.9-9.6-4.1-13,7.6,10.3,11,23.8,19.5,33.6s4.8,5.4,10.5,5.3Z"/>
          <path class="st6" d="M323.1,347.4c.5-5,.4-10.6.8-15.8s-.7-2.4,1.2-2c6.8,5.5,6.3,14.9,12.8,19.6,14.5,1.4,29.3,5.9,42.6,11.8s3.1.6,2.7,2.5c-1.6,0-6.5,2.3-7.6,2.3s-11.6-5.2-14.1-6.1c-7.5-2.8-15-5.6-22.8-7.3-5.3-1.2-11.2-.2-15.6-3.5,0-.5,0-1.1,0-1.6Z"/>
          <path class="st6" d="M406.7,364.4c0,.3,0,.5,0,.8,0,2.5,0,4.9-.8,7.3-4.9-2.2-10.7-6.8-15.4-8.1,4.5-3.7,11.3-.9,16.2,0Z"/>
          <path class="st12" d="M209.4,162.6c2-.4,3.6-1.6,5.7-1.6l-.8-2.4c3.4.4,5.6,1.8,9.3,1.7,5.2-.2,11.1-3.6,16.1-3.2s12.9,2.6,15.1,3.6,3.4,3,5.4,3.5c3.2.7,9,1.1,12.9,1.7s11.5-.5,12.4,5.5-.8,7.8-1.2,9c-1.4,4.5-6.8,10.4-7.5,15.2s-.4,5,0,6.3,3,1.3,3.2,3.4-1.6,2.9-2.1,4.4-.3,3.6-1.3,5.2c-1.4,2.2-5.1,1.9-6.9,3.7-1.1,1.1-1.3,2.9-2.3,4.2-2,2.4-6.5,3.9-8.3,7.1-4.5,1.3-4.3-1.9-4.3-5.5h-2.4c.9,5-3.1,8.5-2.4,13.3,2.5,17.4-.5,27-.9,43.9s.1,5.7,0,8.9c-.2,7.7,1.6,13.6-8.1,15-.8,2.4,2.4,3.4,2.4,5.2s-2.7,3.8-3.4,5.5-1.7,6.4.6,5.5c1.2-.7,8.3-4.2,8.8-4,2.4.7,2.8,5.7.5,7.2-1.3.2-2,.9-4.1.8-4-.2-7.4-2.6-11-3.2s-9.6.7-13.6-.2-8.5-6.5-10.2-.9c-2.4,8.1,6.9,1.9,9.2,1.9,5.3.1,15.7,4.5,21.3,5.4s2.3.1,3.4.2,1.6,0,2.4,0c4.6,2.8-4.1,7.9-6.1,8.1s-7.6-2.7-7.7,1.2c0,7.2,15.9,6.2,18.3,8.5s1.3,2.6,1.2,3.6-1.6,6.5-1.8,6.8c-.8,1.4-15.8,8.3-18.1,8.3-5,0-12.4-5.1-17.5-6.5-2.7-5.9-1.3-12.8-2.8-17.9-2.2-7.3-6.9-13.6-10.6-20.2-4.8-8.5-2.6-11.9-15.8-10.6-3.4-12.5-6.3-28.6-8.1-41.3s-1.2-11.5-1.6-17.8c1.9.2,3.3-.3,3.2-2.4.2.3,3.4.1,3.2,3.5s-2.3,3.1,1.6,5l-3.2.4c1.9,4.1-.9,4.2-.8,4.4.2.7,2.5,4.5,3.2,4.9,1.2.6,5.7,1.4,5.7-.8,0-3.2-2-7-2.2-10.7s1.1-5.1.5-7.6l-4,2.4c-.8-2.7,2.8-3.3,2.1-5.7s-3.8-2.5-6.2-3.2c.2-14.5,2.1-32.3,5.7-46.2s1.6-5.5,2.4-8.1.4-2,.8-3.2c4.2-.5,7.3-6.7,10.1-9.7,3.4-3.6,8.1-6.9,10.2-11.3ZM213.5,242.8c-8.1,4.2.2,12,7.3,9.7-.6,1.3-5.7,3-5.7,4.4,0,2.9,15.4-.3,17.8.4-1.2-4.5,4.8-8.5,5-10.9.2-4-4.2-7.5-6.5-10.7s-.7-2.7-1.4-3.5-2.3-.9-3.2-1.6c-2-1.6-4.9-6.3-5.7-.8-2.7-2.7-12.4-7.2-15.1-3.7s1.6,3.8,4.1,4.9,6.2,3.5,6.5,4.1c.7,1.4-1,1.2-1.8,1.4-2.2.6-4.7.1-6.3,1.8,2.8.2,5.3-.7,8.1.4.2.9-2.7,1.5-3.2,1.6-3.9.6-7.5-.5-10.5,3.7,3.3.8,5.4-1.5,8.9-1.2s1.3-.1,1.6,0ZM234.6,302.8c-1.8-2.8-4.5-5.3-8.1-4.9-1.8,1.6,6.6,5.4,8.1,4.9Z"/>
          <path class="st12" d="M328,258.2c.2.6.7,1.4.8,1.6.3.9.6,4.2.8,5.7s-.1,2.2,0,3.2c-2.4-.4-1.7,1.2-1.5,2.7.8,8.4-.4,14.9-1.7,23.2s-.6,6.2-.8,6.5c-2,3.3-1,2.3-2,6.5s-2.6,5.8-6.1,8.5-1.6,3.8-5.8,2.8c.5-2-1-4.4-.8-6.1s5.3-5.9,3.2-10.1l-3.2.8c-1.8-4.2.8-4.2,1.8-6.7s2.9-7.7,3.1-9.1-2.4-1-2.5-3.1c-.1-3,3.6-5.3,3.3-7.3s-2.3-.9-2.9-2.1c-1.6-2.8,4-7.4,4.9-9.8s0-3.5.4-5.1,6.2-4.5,4.9-7.9c1.3.9,3.5,4.4,4.1,5.7Z"/>
          <path class="st12" d="M218.4,362c6.1,7,19.4,13.1,24.3,19.9.9,1.2,5,9.9,4.9,10.5s-3.1.4-.9,1.6,11.7,3.2,12.2,3.6c2.1,2.3-6.7,2.7-7.7,4.1-2.1,3-.2,11.2-7.7,13s-1.7,0-2.4,0c-.7-6.5-6-11.6-8.8-16.8-4.2-7.9-8.1-17.3-11.4-25.2s-3.9-8.4-2.5-10.7Z"/>
          <path class="st12" d="M259,430.9c0,0,.8-.5.7-1.1-.2-.9-1.8-1.6-2.2-2.7-1.2-3.9,9.2-10.6,12.7-11.4,7.4-1.7,3.5,1.3,6.7,5.5-4.9,4.5-12.2,11-13,17.8-3-1.3-.7-.9-2-3.2s-2.4-1.2-2.8-4.9Z"/>
          <path class="st6" d="M277.6,239.6c-.8,1.9-4.2,2.6-4.8,4.6s.8,3,.6,4.5-2.6,3-2.9,4.4c-.6,2.3.6,10-5,7.1s.4-5.5-.3-6.9c-1.3-2.5-8.4-1-4.9-8.1s14.1-5.3,17.5-5.7Z"/>
          <path class="st6" d="M283.1,242.2c5.3-1,13.3.4,16.4,5.1-1.4,1.7-3.6,1-5.5,1.8-4.4,1.9-7.5,5.3-13.5,3.3-3.2-1.1-3.2-9.1,2.5-10.2Z"/>
          <path class="st13" d="M279.3,324.7l1.6,3.2c-12,3-21,1.7-33.3.8s-1.6,0-2.4,0l.8-3.2c2,.1,2.8-.6,4.1-.8,8.1-1.2,19.4.6,29.2,0Z"/>
          <path class="st6" d="M236.2,370.9c-1.3-1.1.1-1.5,1.2-1.6,6.7-.8,11.6-.2,17.9-.2s13.6-2.1,14.2.6c.9,4.2-12.9,4.8-15.6,4.3s-3.1-1.9-5.1-2.2c-3.8-.6-8.5.3-12.5-.9Z"/>
          <path class="st6" d="M288.8,225.2c1.6,0,6.3-.5,5.8,2.5s-7,4.7-8,5c-2.1.6-14,2.2-14.6,0-1.3-4.3,13.8-7.3,16.9-7.4Z"/>
          <path class="st10" d="M209.4,162.6c-2.1,4.4-6.8,7.7-10.2,11.3-2.8,3-5.9,9.2-10.1,9.7.4-1.3,1.9-4.7,2.4-5.7,1-1.9,4.4-4,4.1-7.3,3.9-.7,4.7-6,8.3-7.5s3.8-.2,5.5-.6Z"/>
          <path class="st6" d="M279.3,324.7c2-.1,11.7-1.1,12.2-.3,4.3,5.6-9,3.2-10.6,3.6l-1.6-3.2Z"/>
          <path class="st6" d="M402.6,335.2c.5.5,2.2.4,2.5,1.4s0,3.6,0,5.1c-2.2-1.1-2.4-4.3-2.4-6.5Z"/>
          <path class="st10" d="M180.2,241.2c2.3.7,5.4.4,6.2,3.2s-2.9,3-2.1,5.7l4-2.4c.6,2.5-.6,5.4-.5,7.6.2,3.7,2.2,7.5,2.2,10.7s-4.5,1.4-5.7.8-3.1-4.2-3.2-4.9,2.8-.3.8-4.4l3.2-.4c-4-1.8-1.8-2.2-1.6-5s-3-3.3-3.2-3.5,0-6,0-7.3Z"/>
          <path class="st6" d="M414,333.6c4,.6,2,4.2,2.4,7.3-2.8-1.8-1.8-5.3-2.4-7.3Z"/>
          <path class="st6" d="M213.5,240.4c.6,0,3.5-.7,3.2-1.6-2.8-1.1-5.3-.2-8.1-.4,1.6-1.7,4.2-1.2,6.3-1.8s2.5,0,1.8-1.4-5.4-3.6-6.5-4.1c-2.5-1.2-7.4-.8-4.1-4.9s12.4,1,15.1,3.7c.8-5.5,3.6-.8,5.7.8s2.5.7,3.2,1.6.7,2.5,1.4,3.5c2.2,3.2,6.7,6.7,6.5,10.7s-6.1,6.4-5,10.9c-2.4-.7-17.8,2.6-17.8-.4s5.1-3.2,5.7-4.4c-7.1,2.2-15.4-5.5-7.3-9.7,1.3.6.5,5.2,2.9,5.7s2.5-3.7,2.9-4c1.7-1.2,3.1.6,2.4,2.4,1.6.1.8-3.5.4-4.1-1-1.5-6.6-1.8-8.6-1.6v-.8ZM233,242.8c.8-3.4-9-3.8-9.7-3.2l4.5,7.3c2.2.4,1.8-5.2,5.3-4.1ZM233.8,245.3c.6-1.1-.5-2.2-.8-1.6-.6,1.1.5,2.2.8,1.6Z"/>
          <path class="st6" d="M246,325.5l-.8,3.2c-1.1,0-2.2,0-3.4-.2-5.6-.9-16-5.3-21.3-5.4s-11.7,6.2-9.2-1.9c1.7-5.6,8,.4,10.2.9,4,.9,9.4-.4,13.6.2s7.1,3,11,3.2Z"/>
          <path class="st13" d="M213.5,241.2c1.9-.2,7.5,0,8.6,1.6s1.1,4.2-.4,4.1c.7-1.8-.7-3.6-2.4-2.4s-.8,4.4-2.9,4-1.6-5.1-2.9-5.7-1.1,0-1.6,0c-.2-2.2,0-1.5,1.6-1.6Z"/>
          <path class="st4" d="M213.5,240.4v.8c-1.6.2-1.9-.6-1.6,1.6-3.5-.3-5.6,2-8.9,1.2,3-4.1,6.7-3,10.5-3.7Z"/>
          <path class="st4" d="M234.6,302.8c-1.5.6-9.9-3.2-8.1-4.9,3.6-.5,6.3,2,8.1,4.9Z"/>
          <path class="st7" d="M233,242.8c-3.5-1.1-3.1,4.5-5.3,4.1l-4.5-7.3c.8-.6,10.5-.1,9.7,3.2Z"/>
          <path class="st7" d="M233.8,245.3c-.3.5-1.4-.5-.8-1.6s1.4.5.8,1.6Z"/>
          <g>
            <path class="st6" d="M156.7,245.3c4.5-3.9,11.4-2.7,16.2,0,.4,3.2-4.3,1.2-3.3,4.4s2.6,0,2.5,3.6c-3.3-1.2-5.5,1.3-4.8,4.4s2.3,1,3.1,1.3c0,.8.1,1.7,0,2.4l-4.1-.8c.6,2.5-.3,9.9,3.5,8.7s1.7-1.4,2.2-1.5c.9,0,4.7,1.6,6.5.8,1.8,12.7,4.7,28.8,8.1,41.3s-.1,1.2,0,1.6c-4.5.7-9.2-.7-13.4-.8-6.4-.2-10.8,0-16.7-.8l-2.4-5.3c0-4.7-.1-9.4,0-14.1s0-.5,0-.8c.9-.5,3.9-.4,4.1-1.3.7-2.4-.6-6.8.3-10.1.6-2.1,3.4-2.3,3.7-3.6.4-2-3.1-2.6-3.2-2.8-.4-.6,5.8-8.3,4-11.3l-4,.8c-.3-2.6,5-2.9,2.9-5.7-.6-.7-7.6-2.8-9-1.6l.4-3.3c.3-.1.5-.7.8-.8,1.9-.9,6.9-2.2,2.4-4.9Z"/>
            <path class="st14" d="M340.9,126.1c1.9.3,3.8.7,5.7.8,0,1.3-2.4,1.5-2.4,1.6-.2.4.9,1,1.1,1.6s-.3,1.5-.2,1.6c.6.3,2.1-.1,4.1,1.2,2.8,1.9,4.2,5.9,6,8.6.5-2.4.7-3.6,3.3-1.7s6,11,6.9,14.6c-.2-.2-2.4-.3-2.8-2.4-1.7-.3-1.4.7-1.1,1.9s4,7.7,5.5,6.2c-1.2-1.8-1.2-3.7-1.6-5.7,5.1,4.4,5.4,7.3,5.7,13.8l1.6-1.6c3.6,9.4,4.1,19.6,4.1,29.6s.7,6.4,2.2,13.1c2.4,11.1,3,24-2.2,34.2-2.8,5.3-3.9,6.1-8.9,8.6s-1.5,1.7-2.1,2c-1.9.9-1-3.4-2-4,2.6-2.1,4.5-5.4,4.7-8.8s-.7-1.6-.7-1.8c0-.5,0-1.1,0-1.6,3.7-2,1.6-6,1.9-8.4s2.2-4.1,2.3-7.4c0-7.4-3.9-16.2-4.9-22.7-1.7-10.8,1.6-24.1-3.3-35.2l-1.6,2.4c-1.5-3.2-.3-12.9-4.9-13.8-.4-1.1-1.2-2.1-1.6-3.2-.9-2.7-1.5-5.4-2.9-8s-4-7.9-7.6-5.8l.8-2.4-3.5-.8-7.8-7.8c2.2.8,4.6.9,6.5,1.2ZM372.6,188.5c.7-9.5-2.1-20.1-8.1-27.6l4.3,16.4,3.8,11.2Z"/>
            <path class="st4" d="M185.9,195c-3.5,13.9-5.4,31.7-5.7,46.2s-.2,7,0,7.3c0,2.1-1.3,2.7-3.2,2.4,0-.9-2.3-6-2.8-6.5-1-.9-2.3-.5-3-.9-4.7-2.5-5.6-.9-10.6-1.7l-7.9-3c-2.1-2.5-4.9-6.5-8.1-7.3l.8-1.6c1.1.5,3.3.9,4.5.8,1.7-3.8-5.7-4.2-6.9-8.1.6-.5-1.5-.9,1.6-1.6s5.6-1.8,2.4-5.7c1-.4,2.6-2.8,5.7-1.6.7,1.8,4.7,1.6,6.5.8.3-1.2-1.1-.5-1.7-1.3s-.5-2.2-.8-2.7c.1-.5.8-1.3.8-1.6.5.1,1.4-.2,1.6,0s-.6,2.4,2,1.6.4-1.3.6-1.4c.7-.3,1.3-.2,1.4-.3,3.2-1.9,3.2-2.2,5.7-4.9,1.9,1-.9,3-.9,4.4s2.3-.1,1.7,3.2-4.2,3.9-4.1,6.9c1.2,1.2,4.8-4,5.4-4.6s.5-2.4,1.9-.6c-.7,5-4,7-7.3,10.1l4.1.8c-2.6,0-4.9,2.9-7,3.3s-4.7-1.4-6.8-.4c.8,1.6,6.8,3.2,7.2,3.8s-.2,2.5.2,3,3.2-.9,2.3,2.5c3.2-1.9,8.4-.6,7.3-5.7l-4.9-.8c2.5-.7,4.6-2.1,7.3-1.6l.4,3.2c5.4-4.2.9-11.5.4-17.4s-.2-7.4,0-7.7c1.4-1.8,1.4.8,1.6,1.1,1.3,1.8,1.9-4.3,2.3-4.9l5.9-7.5Z"/>
            <path class="st4" d="M211.9,122.9c.8,0,2.8.2,4.9,0-.2,1.3.5,2.2.8,3.2s.6,2.2.8,3.2c-3.4-1.3-10.5-6.8-8.1.8-2.3-.9-3.2,1.8-3.1,3.7s1,.3,1.4,1,0,1.6,0,1.8l-1.6.8c-.3-.6-3.9-3-4.9-4.1s1.5-.7-1.1-1.7-3.5-.9-5.4-.7l4.1,2.8c-6.1,0,1.4,7.1.8,7.7-1.7.4-2.1-1.5-3.3-2s-2.9-.2-4-.9-1.7-4.1-4.1-3.6c-.6.6,1.5,6.2,1.6,7.3.3,2-.2,4.4,0,6.5-.2.3-5.2-3.8-5.7-4.1,2.3,0,2.6.7,2.4-2s-1.2-8.8-3.2-6.9c.7,1.7-1.5,3.5-1.6,4.1-1.1-5.2-4,1.8-4.1,4.9-2.2.8-5.8,2.9-8.1,4.1,0-.1-1.6-.8-1.6-1.6,3.2-5.6,4.6-9.3,11.1-12.8,9.5-5.2,20.9-10.6,31.9-11.5ZM206.2,132.6c.4-4.6-5-4.2-8.1-4l8.1,4Z"/>
            <path class="st3" d="M376.7,243.6c-.8,3.1-.6,5.6-2.8,8.1s-11.8,6.3-12.9,8.3-1.1,5.9-1.9,8.6-5.4,11-3.1,14.7,3.8,1.2,4.5,5.7c-2.3.5-4.2.9-6.5,0,.6,4.8-1,8.5-6.5,8.1,1.6-4.4,3.5-5,4.1-11.3,0-.6,1.2-.5,0-2.7-2.9-5-6-1-3.6-10.4s1.1-1.9,1.3-2.3c3.7,8.3,8.5-2,.8-2.4,1.1-3.7,1.2-8.4,3.7-11.3,2.3-2.6,7.5-4.4,10.1-6.5,1,.7,0,4.9,2,4s1.2-1.5,2.1-2c5-2.4,6.1-3.2,8.9-8.6Z"/>
            <path class="st9" d="M340.9,302c-6.4,2.1,1.8,6.5,1.6,10.5l-3.6-4c-1,0-5.8,9-6.9,10.5s-2.3,1.2-2.4,2c-.6,3,3.5,1.3,4.5,1.4,1.7.1,3.4.5,5.3.6s7.3.8,9.3.8h29.2c2,0,6.7.6,9.3.8l-15.8,1.7c-17.9-1.6-36-.6-54-2.5-1.4-1.4,4.7-6.9,5.7-8.1-.7,2.4,2.1,1.9,4.1,1.3s1.2-2.3,1.6-2.9,1.5.3,1.7-.5c.2-1.2-1.1-3.2-1.7-4.4,1.9.8,2.9-1.5,3.2-1.6.7-.3,2.6.6,3.3-.5,2.1-3-1.9-8.5,4.2-6.7s1.2,1.3,1.3,1.5Z"/>
            <path class="st6" d="M269.5,107.5c1.5.4,2.9-1,2.4,1.6-1.7.3-2.9-.7-4.1,1.6-.8-1.2-2.2-.6-3.2-.8-2.8-.5-4.3-1.8-7.3.8s-.8,2.4-2.5,2.8c-.5,1.4,1.3,1.4,1.6,2,.5.9.7,2.3,1.6,3.2-.3.4-7.4,1.6-8.9,2.4l4.5-4.9c-1.5-2-13.4-3.4-10.1,1.6-3.5-.6-2.4,1.2-2.4,4.1,2.3.8,1.7-2.2,2.8-2.4s2.4,2.1,3.6,2.4c-.3.8.2,3,0,4.1-3.9.6-6.5-1-9.3-3.2-.8.2-.3,1.7-.4,2.4l-4.9-1.6.8,2.4c.8,2.4,2.2,4.8,2.9,7.2s.8,2-.9,1.7c-1.6-1.6-1.2-3.7-2.5-5.6s-3.7-2.4-4.4-4.1,1.6-2.1-1.6-3.2c-.8-3,1.5-2.3,1.6-2.4,1-.1,2.3.2,3.2,0v2.4c1.2.4,1.5-.8,1.6-.8,1.2-.3,2.8-.4,4.1-.8-.4-1.4-2.1-1.9-3.2-2.4s-2.2-1.3-4.1-.8c.6-.9-1.1-2.8,3.2-.8-.7-4,1.9-1.9,4.4-2.5,5.8-1.4,8.5-1,13.3-3.1,6.2-2.8,11.1-4.9,18-3.3Z"/>
            <path class="st17" d="M323.1,119.7c5,.6,13.3,4.4,17.9,6.5-1.8-.3-4.3-.4-6.5-1.2l7.8,7.8,3.5.8-.8,2.4c3.6-2.1,6,2.8,7.6,5.8s2,5.3,2.9,8h-.8c-.2-.3-.6-.5-.8-.8s-.6-.5-.8-.8c-1.3-1.6-3.2-3.1-4.1-4.4s-2.7-9.1-5.7-6.9,3.8,3,0,3.6c2.3,1.8,8.4,8.4,2.4,6.1-.6.7,2.6,5.7,3.1,7.1.6,2.1.2,2.3-1.5,1-.1-.2-1,.2-2.4-2.4l-3.3-13.8c-1.3-.2-.9,3.4-.8,4-1.2-1-1.9-2.6-2.4-4.1-2.2-5.5-3.4-8.2-9.7-10.5-1.5-3.1-4.4-2.5-6.5-3.2l.8-1.6c-2.1-.5-4.6-1.3-5.7-3.3,1.8.2,3.9-.2,5.7,0Z"/>
            <path class="st17" d="M353.1,148c.1,0,.5.6.8.8s.5.6.8.8c.7,1,1.5,3.9,1.6,4.1.5.5.7-.8.8-.8,4.5.8,3.4,10.5,4.9,13.8l1.6-2.4c4.9,11.1,1.6,24.4,3.3,35.2s4.9,15.3,4.9,22.7c0,3.3-2,5.3-2.3,7.4s1.8,6.4-1.9,8.4c-.1-2-1.1-4-.9-6.1s1.8-2.9,1.7-5.5-2.6-8.3-3.2-11.9c-2.7,0-4.1,2.2-5.7,4.1-.2-1.8-.5-4.9-.8-6.5,3.3-3,.3-4.8,0-6.9-.5-4,.5-9.4-3.3-12.5-.1-4.8.2-9.7,0-14.6s-.7-10.9-2.4-17l3.3,2c-1.9-2.2-.6-5.6-1-7.1s-7.3-9.3-2.3-7.9ZM358,169.1l-.8-4.9h-.8s.8,4.9.8,4.9h.8ZM359.6,174.8l-1.6-4.9c-.3,3.2-2.1,3.8,1.6,4.9Z"/>
            <path class="st15" d="M153.4,250.9l-.4,3.3c1.3-1.2,8.4.8,9,1.6,2.1,2.8-3.2,3.1-2.9,5.7l4-.8c1.8,3-4.4,10.8-4,11.3s3.7.8,3.2,2.8-3.1,1.6-3.7,3.6c-.9,3.3.4,7.7-.3,10.1s-3.2.8-4.1,1.3c0-2.9-.5-7.2.4-9.8s7.5-3.8.5-6.4c-.2-1.8,1.8-2.6,2.6-4.3s1.2-4.3,2.3-6.2c-5.5,1.1-7.6-2.2-1.6-3.3,1.5-5.1-9.1-3.5-9.7-4-.4-4.3,2.9-3.9,4.9-4.9Z"/>
            <path class="st4" d="M168.9,178.8h.8l.8,2.4c-4.1,3.4-4.8,11.9-4.9,17-1,.5-1.4-1.2-1.6,1.6-3.5,1.2-3-3-5.7-.8.6-6.4,2.4-12.6,1.6-18.6s0-.5,0-.8c2-.4,1.7.7,1.6,2.4.3.4,3.1-1,3.2-.8s-.2,1.5,0,1.6c2,1.6,1.4-2.3,2-3.3s1.8-.6,2-.8Z"/>
            <path class="st17" d="M279.3,110.7c1.7.4,1.4-1.3,2.7-1.8,4.7-1.7,4.8.6,7.5.9s4.9-.3,7.2.1c3.4.6,7.4,2.1,11,2.4l-.8,1.6c2.1,1.1,4.6.5,6.5.8l-.8,4.9c-4-.5-7-2.3-10.6-3.2s-4.2-.9-7.3-.8l.8-2c-.2,0-.4-.2-.6-.2-4.3-1-10.1-1.1-14.4-1.8s-1.1-.8-1.2-.8Z"/>
            <path class="st6" d="M360.4,289c.8,6.1-1,7.7-4.1,12.2s-2.7,2.2-3.2,5.7h-.8c-1-1.9-2.5-3.5-4.9-3.2-.2-2.2-.6-1.9,0-4.9s-.1-1.2,0-1.6c5.5.4,7.1-3.3,6.5-8.1,2.3.9,4.1.5,6.5,0Z"/>
            <path class="st6" d="M279.3,110.7c.1,0,.5.7,1.2.8,4.4.7,10.2.9,14.4,1.8s.4.1.6.2l-.8,2c-2.3,0-5.6-.9-4.9,1.6-.3,0-.5,0-.8,0,.8-2.2-3.6-2.1-4.6-2.1-2,0-5.1.3-7.2.5s-2-.4-2,.8c-3.3-.5-4.3-1.5-8.9-1.6,0-1,.7-2.9,1.6-3.2,4.3-1.6,6.9-1.4,11.4-.8Z"/>
            <path class="st7" d="M168.9,147.2c0,.8,1.6,1.5,1.6,1.6.4,1.2-1.1,3.4-.8,4.9l5.7-.4-3.7,6.9-1.2-4c-.2,3.4-4.7,9.4-4,12.4s2.9,1.4,3.1,3h-5.7c-.9-.6-2.1,1.4-1.4-2.6s4.6-9.9,4.6-12.4-1.1-3-1.5-4.4c1.5-1,1-3.2,1.6-4.3s1.6-.5,1.6-.6Z"/>
            <path class="st3" d="M352.3,306.9c-1.7-.1-3.2-.6-4.9-.8.2,1,0,2,.4,3.3.9,2.4,4,3.6,2.9,7.3-2.8,1-1.4-5.2-3.6-4s-5.4,9.2-7.7,10.5c-1.9-.1-3.6-.5-5.3-.6s-5.1,1.6-4.5-1.4,2.1-1.6,2.4-2c-.5,2.3,1.5,1.8,2.9,1.7,3-.3,1.6-1.1,3.3-2.4s1.9-.5,2.5-1.1c2.4-2.3,3.1-8.1,3.5-11.1,1.1,0,2.2-.1,3.2,0-.1-.7,0-1.6,0-2.4,2.3-.3,3.8,1.4,4.9,3.2Z"/>
            <path class="st15" d="M154.2,290.7c0,4.7,0,9.4,0,14.1l2.4,5.3c-1-.1-2.2,0-3.2,0s-1.1,0-1.6,0c-2.3-4.2-2.1-11.8-1.5-16.6s1-3.3,4-2.9Z"/>
            <path class="st15" d="M159.1,172.3c-.4-1.4.3-6.2,1-7.6s1.9-1.1,2.2-2,.6-17.2,3.3-14c-.2,1.3-.4,1.9,0,3.2s1.5,3.3,1.5,4.4c0,2.6-3.9,8.3-4.6,12.4s.5,2,1.4,2.6,1.1,1.1,1.6,1.6c-2.2,0-4.5.4-6.5-.8Z"/>
            <path class="st6" d="M158.3,199.1c2.7-2.2,2.1,2,5.7.8-.3,3,.1,6-.8,8.9,0,0-.7,0-1.4.3s-.3,1.3-.6,1.4c-2.6.7-1.9-1.5-2-1.6l-2-5.7c-1.3,1.6.3,4.1.4,5.7s-.7,1.1-.8,1.6c0,0-1.5-.8-1.6-.8.2-2.3.5-4.7-2.4-4.9-.4-.5,2.6-2.1,2.4-4l1.6-.8.4,2.4c1.3-.9,1.1-1.9,1.2-3.2Z"/>
            <path class="st15" d="M158.3,199.1c-.1,1.3,0,2.4-1.2,3.2l-.4-2.4-1.6.8c0-.7-1-1.5-.8-3.6.3-4.8,3.3-10.7,2.5-15.9l1.6,2.4,1.6-3.2c.8,6-1,12.3-1.6,18.6Z"/>
            <path class="st15" d="M144.5,231.5c3.3.8,6,4.8,8.1,7.3s2.3,2.6,3.2,4l-7.3-2.4c-1.5-1.7-2.4-3.8-3.6-4.9s-3.9-1.7-4.5-2.8c-.9-1.8,3.6-1.3,4.1-1.2Z"/>
            <path class="st7" d="M165.6,173.1c2.2,0,5.3.3,7.3,0l.8.8c-3.2.7-6.2,2.4-9.7,1.6l.8,5.7c-.2-.2-2.9,1.2-3.2.8,0-1.7.4-2.9-1.6-2.4-.2-1.1-1-2.6-.9-3.6s1.4-.5,1.5-.6c.8-1.2-1.2-2.1-1.5-3.1,2,1.2,4.3.8,6.5.8Z"/>
            <path class="st13" d="M152.6,238.8l7.9,3c5,.8,5.9-.8,10.6,1.7s2.1,0,3,.9,2.7,5.6,2.8,6.5c.5,6.3.7,11.5,1.6,17.8-1.8.8-5.6-.9-6.5-.8-1.7-3-2.2-3.3-1.6-6.5s0-1.7,0-2.4c.7.2,3,1,3.2.8,1-2.8-2-2.5-2.3-3.7s.7-2,.7-2.8c.1-3.6-2.2-2.9-2.5-3.6-1.1-3.2,3.7-1.2,3.3-4.4-4.8-2.7-11.7-3.9-16.2,0-.4-.2-2.1-.1-3.2-.8-2.7-1.6-2.9-1.8-4.9-4.1l7.3,2.4c-1-1.4-2.2-2.7-3.2-4ZM174.5,249.3h-1.6s0,2.4,0,2.4c1.2-.3,1.9-1.3,1.6-2.4Z"/>
            <path class="st15" d="M142.9,222.6c1.2,3.9,8.6,4.3,6.9,8.1-1.2.1-3.3-.3-4.5-.8-1.9-.8-5.9-4.1-6.5-6.1s3.4-.7,4-1.2Z"/>
            <path class="st17" d="M267.9,110.7v.8c-.9.4-1.6,2.2-1.6,3.2-.3,0-.5,0-.8,0-2.8,0-3.9.3-6.5.8s-1.7,0-2.4,0c-.4-.6-2.2-.7-1.6-2,1.7-.4,1.7-2.2,2.5-2.8,2.8,1.2,6.8,3.2,7.3-.8,1,.2,2.4-.4,3.2.8Z"/>
            <path class="st4" d="M228.9,118.8c-.1.2.1.7,0,.8s-2.5-.6-1.6,2.4c-2.6-.9-6.2-.4-8.9,0l-2.4-1.6c4.7-1.5,7.9-2.1,13-1.6Z"/>
            <path class="st17" d="M269.5,107.5c1.4-2.3,10.3-3.1,11.4-1.6,2.4,3.4-5.6,2.3-6.1,2.4-1.2.1-2,.7-2.8.9.4-2.6-.9-1.3-2.4-1.6Z"/>
            <path class="st14" d="M313.3,114.8c4.3.9,3.4,2,4.9,2.8s4.1-.2,4.9,2.1c-1.8-.2-3.9.2-5.7,0s-3.3.2-4.9,0l.8-4.9Z"/>
            <path class="st14" d="M356.4,301.2c1.5,3.3,1.8,9.3-3.2,8.9,0-1-.2-2.2,0-3.2.5-3.5,2-3.9,3.2-5.7Z"/>
            <path class="st15" d="M156.7,210.4c.3.5.2,1.8.8,2.7s2,.1,1.7,1.3c-1.7.8-5.8,1-6.5-.8s.7-.3.7-.7c-3.4,0-.2-3.3,1.8-3.4s1.6.7,1.6.8Z"/>
            <path class="st15" d="M146.9,215.3c3.1,3.9,1.5,4.8-2.4,5.7,2.6-3.1-2.1-2.4-1.6-4.4.9-1.8,3.1-.9,4.1-1.2Z"/>
            <path class="st15" d="M156.7,245.3c4.5,2.6-.5,4-2.4,4.9-.7-2.2-2.1-3.3-.8-5.7,1.2.7,2.9.6,3.2.8Z"/>
            <path class="st15" d="M215.9,120.5l2.4,1.6c-.2,0-.9.7-1.6.8-2.1.2-4.1,0-4.9,0-.6-2.2,2.2-1.8,4.1-2.4Z"/>
            <path class="st17" d="M234.6,118c-.5.4-1.2,1.5-1.6,1.6s-.5,0-.8,0c-.9.2-2.2-.1-3.2,0,.1-.2-.1-.6,0-.8.4-.6,1.2-1,1.6-1.6,1.8-.5,2.6.2,4.1.8Z"/>
            <path class="st7" d="M254.1,147.2c3,.5,4.1,4,7.1,4.7s1.6-1.5,2.3-1.5c1.1,0,1.9,1.4,3.3,1.6,9.6,1.7,10.3,3.2,18.4,6,7.5,2.6,18.4,2.9,25.2,6.4,2.5,1.3,2.9,3.7,3.9,4.3s2.8-.8,3.2-.5.7,2.8,2,4.1,3.2,1.4,3.8,2.1,3.2,9.1,3.2,9.7c0,1.9-2.2,1.3-2.4,2.4s1.8,4.6,2.1,6c1.5,7.3,3.8,13.4,6.5,20.3s5.7,10.2,6.5,15.4c.8,4.8-.9,17,2,19.5-.4.7-.8,1.6-.8,2.4-1.8,1.5-4.5,2.5-6.1,4.1s-2.7,5.3-5.3,5.7c0-.3-.6-1-.8-1.6,2.2-4.3.2-10,0-14.2-.3-6.6.9-12.4-1.5-18.8-4.3-11.6-9-19.1-11.9-31.9-.7-3-5.1-7.7,1.1-6-1.6-2.9-2.3-8.8-4.1-11.3s-2.6-1.2-3.6-2.1-.9-2.8-2.1-3.6c-3.6-2.4-8.5-5.2-12.9-6.5-6.1-1.8-13.2-2.4-19.2-4.4s-10.2-5.8-15.2-6.3-6.6,2.1-7.1-4.3c.7-.2,1.6-1.3,2.4-1.6Z"/>
            <path class="st13" d="M218.4,129.4c0,.3,0,.5,0,.8,1.2,8.4.4,13.9-.8,22.2,0,.4-1.9,1.1-2.5,1.3-3.4,1.4-7.8,3.2-11.4,3.2.1-.3-.2-1.2,0-1.9s2.7-.3,1.2-1.4c-3.1,2.4-9.4,2.4-12,4s-7.6,9.3-11.2,11.7-7.2,3.4-8.9,3.7-5.1,0-7.3,0c-.5-.5-1-1.2-1.6-1.6h5.7c-.2-1.5-2.7-1.1-3.1-3-.8-3.1,3.7-9,4-12.4l1.2,4,3.7-6.9-5.7.4c-.3-1.5,1.2-3.6.8-4.9,2.3-1.1,5.9-3.2,8.1-4.1s2.3-1,4.1-.8,2.1.6,2.4.8,5.5,4.3,5.7,4.1c-.2-2.1.3-4.5,0-6.5l3.3,3.2c1.4.4.4-1.7,1.3-1.7,1.5,0,6.3,3.1,6.9,2.5l-.9-6.1.9-6.9c1,1,4.6,3.5,4.9,4.1.6,1.1,0,5.2,3.2,4.9-.2-1.6.4-3.7,0-5.1s-1.6-.5-1.6-.5c-.1-.2.3-1.3,0-1.8s-1.4-.6-1.4-1c0-1.9.8-4.6,3.1-3.7-2.4-7.6,4.7-2.1,8.1-.8ZM189.6,158.6v.8c.5-.3.5-.5,0-.8ZM188.3,159.4c-1.4-1.2-7.4,4.8-8.4,5.4-1.5.9-5.2,0-4.6,2.7,3.9-.9,8.2-3.6,11.4-6s3-.9,1.5-2.1Z"/>
            <path class="st13" d="M198.1,163.4c-.2,2.2-1.8,4.1-3.2,5.7-2.9,3.3-8.2,6.1-9.7,10.5-1.5.9-1.6,1.8-2.4,2.4s-1.9,2.4-2.5,2.8c-1.1.6-2.8.3-3.6,1.2s-2.6,11.4-4.4,13.8c-1.8,1.5-2,2.7-3.2,4.1-2.5,2.7-2.5,3-5.7,4.9.9-2.9.5-6,.8-8.9s.6-1.1,1.6-1.6,2.4-.8,2.8-1.6c1.1-1.8,1.7-10.2,3.1-13.2s2-2.3,3-3.5c-1.4-1.3-3,.4-4.1,1.2l-.8-2.4c4.1-.2,6.1-2.9,8.9-4.9s3.5-1.9,4.9-3.2l.4,4c3.7-4.7,4.5-9.3,10.8-11.1s2.5,0,3.4-.2ZM182.2,175.6v.8c.5-.3.5-.5,0-.8ZM181.2,177.2c0-.6-.4-1-1-1s-1,.4-1,1,.4,1,1,1,1-.4,1-1ZM178.2,178v.8c.5-.3.5-.5,0-.8Z"/>
            <path class="st7" d="M351.5,285.8c-.6,6.3-2.5,6.9-4.1,11.3-.1.4.1,1.1,0,1.6l-4.9,1.2c3.1,1.2,1.8,2.2,1.6,3.6-1.3,0-2.2-1-3.2-1.6s-.3-1.1-1.3-1.5c-6.1-1.8-2.1,3.6-4.2,6.7s-2.6.2-3.3.5c1.2-2.6,0-2.2-.8-3.2-2.2-2.7-2.5-1.9-5.7-3.2.2-.3.6-5.1.8-6.5,7.4,2.1,6.2-6.3,7.4-7.2s4.3.4,5.6-.9c-.2,3-1.1,7,2,6.5s3.1-6.7,3.7-7.3,5.1.9,6.5,0Z"/>
            <path class="st6" d="M172.9,173.1c1.7-.3,7.3-2.6,8.9-3.7,3.6-2.4,8.8-10.3,11.2-11.7s8.9-1.6,12-4c1.5,1.1-1,.5-1.2,1.4s.2,1.6,0,1.9c-1,2.3-3.2,5.9-5.7,6.5s-2.2-.2-3.4.2c-6.3,1.8-7.1,6.5-10.8,11.1l-.4-4c-1.4,1.4-3.3,2.2-4.9,3.2h-.8c-.9-1-2.7-.3-4.1,0l-.8-.8Z"/>
            <path class="st6" d="M220.8,126.1c4.5,7.3,1.9,15.7.8,23.5,1.8-.9,2.1-4.7,2.4-6.5,5.1,2.7-.4,5.6.8,9.7-1.1,1.4-5.9,2.5-8.1,2.9s-1.5.1-1.7-2.1c.6-.2,2.4-.9,2.5-1.3,1.2-8.3,2-13.8.8-22.2l2.2,3.1,1.8,6.7c.2-4.7.5-9.5-3.2-13,.5-.3,1.1-.5,1.6-.8Z"/>
            <path class="st7" d="M227.3,125.3c1.7,2,2,5.5,2.9,7.2s4.4,5.1,4.4,5.5c.5,2.7-1.5,6-1.6,8.7l3.3-.4c-.5,5.3,1.3,5.3-5.7,5.7,0-1.7.6-3.2.8-4.9.3-2.9.4-4.4-.8-7.3-.5,0-1.3-.1-1.6,0-.9.3-.4,1.9-1.6,1.6-.4-3.3.6-7.8,0-10.9s-3.1-2.8-3.2-5.3c.2-.1-.2-4,3.2,0Z"/>
            <path class="st13" d="M224.1,125.3c0,2.5,2.8,2.9,3.2,5.3s-.4,7.6,0,10.9c1.2.3.8-1.3,1.6-1.6-.1,2.1-.1,6.3-.8,8.1s-1.2.6-1.5,1.3-.7,2.5-.9,2.7-.6.5-.8.8c-1.2-4.1,4.3-7-.8-9.7-.4,1.8-.6,5.5-2.4,6.5,1.1-7.8,3.7-16.2-.8-23.5,1.5-.8,3.1-.7,3.2-.8ZM224.9,135.1v6.5s.8,0,.8,0v-6.5s-.8,0-.8,0Z"/>
            <path class="st6" d="M195.6,170.7c.3,3.3-3.1,5.3-4.1,7.3-2.2-.3-4.6.5-6.5,1.6,1.5-4.4,6.8-7.3,9.7-10.5,0,.6.8,1.4.8,1.6Z"/>
            <path class="st17" d="M328.8,314.2c-.4.6,1.1,2-1.6,2.9s-4.8,1.2-4.1-1.3c1.2-1.6,1.6-4.4,3.7-5.7l2,4Z"/>
            <path class="st17" d="M331.2,304.4c.9,1.1,2,.6.8,3.2-.3.1-1.3,2.4-3.2,1.6-2.1-3.8-5.3-6.3,2.4-4.9Z"/>
            <path class="st6" d="M254.1,147.2c-.8.4-1.7,1.4-2.4,1.6s-1.1,0-1.6,0c0-.5,0-1.1,0-1.6s.6-2.5.8-3.2.8-4,1.6-4l1.6,7.3Z"/>
            <path class="st10" d="M228.9,139.9c.3-.1,1.1,0,1.6,0,1.3,2.9,1.1,4.4.8,7.3-.6,0-1.3.7-1.6.8s-1.1,0-1.6,0c.7-1.8.7-6,.8-8.1Z"/>
            <path class="st10" d="M237,143.2c.1-.1,0-1.3,1.6-.8l.8,7.3c-2.5-1-2.1-.9-2.4-4.1s0-1.1,0-1.6v-.8Z"/>
            <path class="st6" d="M229.7,148c.7,4-.8,3.2-4.1,4.1.2-.3.5-1.9.9-2.7s1.5-1.2,1.5-1.3c.5,0,1.2.1,1.6,0Z"/>
            <path class="st7" d="M170.5,261.5c-.6,3.2,0,3.5,1.6,6.5-.5,0-1.4,1.2-2.2,1.5-3.8,1.1-2.9-6.2-3.5-8.7l4.1.8Z"/>
            <path class="st7" d="M172.1,253.4c0,.8-.9,2-.7,2.8.3,1.2,3.4.9,2.3,3.7-.2.2-2.5-.6-3.2-.8s-2.8.3-3.1-1.3c-.7-3.1,1.5-5.5,4.8-4.4Z"/>
            <path class="st9" d="M363.7,250.1c-2.6,2.1-7.8,3.9-10.1,6.5-2.5,2.9-2.6,7.6-3.7,11.3s-.6,1.6-.8,2.4-1,1.3-1.3,2.3c-2.4,9.3.7,5.4,3.6,10.4s.1,2.1,0,2.7c-1.4.9-6.3-.2-6.5,0-.6.6.5,6.6-3.7,7.3s-2.2-3.4-2-6.5,0-1.1,0-1.6c.6-5.2,2.1-8.5,1.6-14.6,6.6,0,4.6-5,0-6.5,0-2,.7-3.8-1.6-3.2.2-1.1.8-2.2.8-2.4l12.1-7.8c.6-.5,2.3-2.3,2.5-2.8l1.2,3.3c1.6.1,2.1-2,3.4-2.3s2.4.7,2.6.6c1-.6,4.2-8.6,5.8-9.7,0,.1.8.5.7,1.8-.3,3.4-2.1,6.7-4.7,8.8Z"/>
            <path class="st5" d="M359.6,218.5c1.5-1.8,3-4,5.7-4.1.6,3.6,3,8.4,3.2,11.9s-1.5,3.4-1.7,5.5.8,4.1.9,6.1,0,1.1,0,1.6c-1.5,1.1-4.8,9.1-5.8,9.7s-1.6-.8-2.6-.6-1.8,2.4-3.4,2.3l-1.2-3.3c.4-1.1.3-4.2.8-5.7s.5-1.6.8-2.4,1.9-2.1,2.3-3.8-.4-3.6-.2-5.2c.8-5.8,2-4.5,1.2-12.1Z"/>
            <path class="st11" d="M372.6,188.5l-3.8-11.2-4.3-16.4c6,7.4,8.8,18,8.1,27.6Z"/>
            <path class="st11" d="M365.3,154.5c.5,1.9.4,3.9,1.6,5.7-1.5,1.4-5.1-4.9-5.5-6.2s-.6-2.2,1.1-1.9c.5,2.2,2.6,2.2,2.8,2.4Z"/>
            <path class="st5" d="M357.2,152.9c0,0-.3,1.3-.8.8s-.9-3-1.6-4.1h.8c.4,1.1,1.2,2.1,1.6,3.2Z"/>
            <path class="st5" d="M353.1,148c-5-1.4,2.2,7.4,2.3,7.9.4,1.5-.9,4.9,1,7.1l-3.3-2c1.8,6.1,2.2,10.7,2.4,17l-3.3-12.2-1.6,1.6c-1.9-4.5-.5-8.5-3.3-13,1.7,1.2,2.1,1,1.5-1s-3.7-6.4-3.1-7.1c6,2.4-.2-4.3-2.4-6.1,3.8-.6-.4-3.3,0-3.6,2.9-2.2,4.9,5.8,5.7,6.9s2.8,2.8,4.1,4.4Z"/>
            <path class="st5" d="M353.9,148.8c-.4-.2-.7-.8-.8-.8.2.3.6.5.8.8Z"/>
            <path class="st5" d="M354.7,149.6c-.3-.2-.6-.7-.8-.8.2.3.6.5.8.8Z"/>
            <path class="st6" d="M177,196.6c0,.5.1,1.5,0,1.6s-1.2-.1-1.6,0c-.3,2.6,0,4.7,3.1,3.1s3.7-8.4,4.7-10.3,1.8-1.9,2.7-3.8.4-.5,2.5-.3c-.8,2.6-1.8,5.5-2.4,8.1l-5.9,7.5c-.4.6-.9,6.8-2.3,4.9s-.2-2.9-1.6-1.1,0,6.5,0,7.7c.5,5.9,5,13.2-.4,17.4l-.4-3.2c-2.7-.5-4.8.9-7.3,1.6l4.9.8c1.1,5-4.1,3.8-7.3,5.7.8-3.4-1.9-2-2.3-2.5s.2-2.2-.2-3-6.3-2.2-7.2-3.8c2.2-1,4.4.8,6.8.4s4.4-3.3,7-3.3l-4.1-.8c3.4-3.1,6.6-5.2,7.3-10.1-1.3-1.8-1.4.1-1.9.6s-4.3,5.8-5.4,4.6c-.2-3.1,3.5-4.4,4.1-6.9s-1.6-2.8-1.7-3.2c0-1.4,2.7-3.4.9-4.4,1.2-1.3,1.5-2.5,3.2-4.1s2.7-1.4,3.2-1.6c0-.5-.2-1.4,0-1.6s1.2.1,1.6,0c.5-4.7.7-8.1,4.9-11.3-1,4.1-.6,9.9-4.9,11.3ZM175.3,203.1c-3.8,0-2.1,6.7-2.4,8.9,3.2.6,1-3.6,1.2-5.3s1.8-2.1,1.2-3.6Z"/>
            <path class="st15" d="M159.1,208.8c-.2-.2-1.2.1-1.6,0,0-1.6-1.7-4.1-.4-5.7l2,5.7Z"/>
            <path class="st7" d="M202.1,133.4l-.9,6.9.9,6.1c-.6.6-5.4-2.5-6.9-2.5s.1,2-1.3,1.7l-3.3-3.2c-.1-1.1-2.2-6.7-1.6-7.3,2.4-.5,2.9,2.9,4.1,3.6s2.7.3,4,.9,1.5,2.4,3.3,2c.6-.6-6.9-7.7-.8-7.7l-4.1-2.8c1.8-.1,3.6,0,5.4.7,2.6,1,1,1.6,1.1,1.7Z"/>
            <path class="st9" d="M227.3,122.1c3.2,1.1,1.5,3.1,1.6,3.2h-1.6c-3.5-4-3-.1-3.2,0s-1.8,0-3.2.8-1.1.6-1.6.8c-.4-.3-1.2-.5-1.6-.8-.3-1-1-2-.8-3.2.7,0,1.4-.8,1.6-.8,2.7-.4,6.3-.9,8.9,0Z"/>
            <path class="st7" d="M182.7,139.9c.1-.6,2.3-2.3,1.6-4.1,2.1-1.9,3.1,5.8,3.2,6.9.2,2.7-.1,2-2.4,2-.4-.2-2.2-.8-2.4-.8.2-1.2-.3-3,0-4.1Z"/>
            <path class="st7" d="M219.2,126.9c3.8,3.4,3.4,8.3,3.2,13l-1.8-6.7-2.2-3.1c0-.3,0-.6,0-.8-.2-1.1-.5-2.2-.8-3.2.5.3,1.3.5,1.6.8Z"/>
            <path class="st6" d="M178.6,144.8c0-3.1,3-10.1,4.1-4.9-.3,1.1.2,2.8,0,4.1-1.8-.2-2.5.3-4.1.8Z"/>
            <path class="st7" d="M206.2,132.6l-8.1-4c3.1-.1,8.6-.6,8.1,4Z"/>
            <path class="st7" d="M208.6,136.7c0,0,1.4-.3,1.6.5.4,1.4-.2,3.6,0,5.1-3.2.4-2.6-3.8-3.2-4.9l1.6-.8Z"/>
            <path class="st6" d="M349.1,270.4c.2-.8.6-1.6.8-2.4,7.7.4,2.9,10.7-.8,2.4Z"/>
            <path class="st11" d="M344.2,303.6c-.1,1.3,0,2.3,0,2.4-.3,3.1-1.1,8.8-3.5,11.1s-1.8.6-2.5,1.1c-1.7,1.3-.3,2.1-3.3,2.4s-3.4.6-2.9-1.7c1.1-1.5,5.9-10.5,6.9-10.5l3.6,4c.1-4.1-8-8.5-1.6-10.5,1,.6,1.9,1.6,3.2,1.6Z"/>
            <path class="st12" d="M249.2,121.3c-.5.3-1.6.7-1.6.8-1.2-.3-2.3-2.7-3.6-2.4s-.6,3.2-2.8,2.4c0-2.9-1-4.7,2.4-4.1-3.2-5,8.7-3.6,10.1-1.6l-4.5,4.9Z"/>
            <path class="st15" d="M264.6,109.9c-.5,4-4.5,2-7.3.8,3-2.6,4.5-1.3,7.3-.8Z"/>
            <path class="st10" d="M237.9,125.3c0,1.1,0,2.2,0,3.2l-4.1-2.4-.8-2.4,4.9,1.6Z"/>
            <path class="st15" d="M234.6,118c1.2.5,2.8,1.1,3.2,2.4-1.3.4-2.9.5-4.1.8l-.8-1.6c.4-.1,1.1-1.3,1.6-1.6Z"/>
            <path class="st4" d="M233.8,121.3c-.1,0-.5,1.2-1.6.8v-2.4c.3,0,.6,0,.8,0l.8,1.6Z"/>
            <path class="st13" d="M259,115.6c-1.1,2.4,5.3,1.9,7.3,1.6-1.3,1.5-.4,2.2,1.2,2.4,2.9.5,6.5,0,9.3-.8l-1.6-2.4c5,.8,9.2.3,13.8.8s.6,0,.8,0c4.5.8,6.1,2.6,12.2,3.2s2.4.6,4.1.8c.8,2.1,3.5,1.7,4.9,2.8s0,1.5.2,1.9,2.2-.2,1.3,1.8c-4.6,1.1,2.2,1.4,3.3,1.6,3.7.9,6.8,2.4,9.7,4.9,1.3,5.2,4.9,12.9,4.9,18.2v17.4l1.6-7.7c.4-7.5-.8-15-2.4-22.3h.8c.3.2.5.7.8.8.8.3,1.3,1.1,2.4.8.5-1.2-.7-2-.8-2.4s.3-1,.8-.8c.7.9,1.2,1.2,1.6,1.6s1.7.8,2,1.6-.3,3.1-.4,4.1c-1.6-1.2-3.7-2.9-5.7-3.2-.4.4,3.2,9.7,3.2,11.7v15c1.2.1,1.5-2.1,1.5-2.9.3-2.9-.5-7.2,0-9.5s1.6-.6,1.7-1c0-2-3.9-5.7-3.3-8.5,1-.5.9,3.4,2.4,1.6s0-2.4,0-3.2c2.8,2,1.8,1.8,3.2,3.2-.4,4.2,2.6,6.8,4.9,9.7-.1.1.1.6,0,.8-1.4,2.2-.5,2.6,0,4.9l-3.2-1.6c.7,4.7,2.5,9.4,2.5,14.2s-1.7,2.8-1.7,3.3c-.2,1.8,1.7,2.8,1.7,4s-1.4,2-1.6,3.3,0,5.2,0,5.5c0,.6,2.1,1,3.1,2.7,2,3.5,1.3,6.9,1.8,10.3s1.5,2.2,1.6,3.3-6.1,12.9-1.2,11.7,2.3-5.9,6.1-4.9c.5,3.5,3.2,8.5,3.3,11.8s-1.5,3.9-1.6,5.7c-.1,1.8,1.3,4,.8,6-.3.8-.5,1.6-.8,2.4-1,1.1-5.3,8.6-5.8,8.8s-4.6-1.1-6,1.7c1.4-4.5-1.4-3.6-2.8-4.8-2.9-2.5-1.2-14.7-2-19.5-.8-5.2-4.5-10.3-6.5-15.4s-5-13-6.5-20.3-2.1-5.7-2.1-6c.3-1.1,2.5-.5,2.4-2.4s-2.9-9.3-3.2-9.7c-.6-.7-2.5-.8-3.8-2.1s-1.8-4-2-4.1c-.4-.3-2.1,1.1-3.2.5s-1.3-3-3.9-4.3c-6.8-3.5-17.7-3.8-25.2-6.4-8-2.8-8.8-4.2-18.4-6s-2.1-1.6-3.3-1.6.3,2.1-2.3,1.5-4-4.3-7.1-4.7l-1.6-7.3c-.8,0-1.4,3.2-1.6,4l-4.1-4.9,3.2,8.1c0,.5,0,1.1,0,1.6,0,2.3.5,2.9,1.2,4.8-5.1-1.5-7.2-4.6-9.8-8.9l-.4,5.7c-1.4.4-1.4-.7-1.6-.8l-.8-7.3c-1.6-.5-1.5.7-1.6.8s-.6,0-.6.4l.6.5c0,.5,0,1.1,0,1.6-.4,0-.8.4-.8.8l-3.3.4c.1-2.8,2.2-6,1.6-8.7s-3.7-4.2-4.4-5.5-1.1-5.2-2.9-7.2h1.6c.8,1.7,3.4,2.4,4.4,4.1s.9,4.1,2.5,5.6c1.7.3,1.3-.5.9-1.7-.8-2.4-2.1-4.8-2.9-7.2l4.1,2.4c0-1.1,0-2.2,0-3.2s-.4-2.2.4-2.4c2.9,2.2,5.5,3.9,9.3,3.2.2-1.1-.3-3.3,0-4.1s1.1-.6,1.6-.8c1.5-.8,8.6-2.1,8.9-2.4-.9-.9-1.1-2.3-1.6-3.2.8,0,1.7.1,2.4,0ZM266.3,126.9c-4,1.2-1.7-.5-3-.8s-4.1.2-4.3,0c-.5-.5,1.1-3.7-1.2-3.2-1.6.7-1.9,4.4-3.6,3.1s0-1.2-.2-1.4c-1.7-1.3-5.2,4.1-3.9,6.3,2.1.7,2-2.3,2.9-2.5,5.3-.8,3.9,11.7,8.5,12.2.1.5,0,1.1,0,1.6h.8s0-9.7,0-9.7c2.3,2.8,3.1,5.8,5.7,8.1,0-2.6-1.4-4.8-2.1-7.2s.3-1.6,2.1-1.7c.8,2.1,2.1,4,2.3,6.3s-2,5.4,1,6.7l.8-6.5c2.3.5-1,5.7,2.4,4.9-1-5.7,1.9-8.3,5.7-11.7-2.4-.5-2.5-3.9-3.7-4.4s-7.3-1-8.1-1c-1.4,0-1.6.8-1.9.9ZM242.7,131c.9-.9-1.5-4.8-3.2-4-1,2.2,1.7,5.5,3.2,4ZM313.3,141.5c-4.6-.2-8.8,3.1-10.5,7.3,3.8,1,3.1-1.4,4.8-2.9s5.7-1.4,5.8-4.4ZM262.2,147.2c1.1,1.1,5.3-3.2,2-4.8l-2,4.8ZM328,183.7c3.9-.9,4.2-4.3.4-5.7l-.4,5.7Z"/>
            <path class="st7" d="M338.5,138.3c.6,1.4,1.2,3,2.4,4.1.4,2.1,3,7.6,4.1,9.7s2.3,2.3,2.4,2.4c2.8,4.5,1.4,8.5,3.3,13l1.6-1.6,3.3,12.2c.2,4.8-.1,9.7,0,14.6.2,8.5,1.7,11.6,3.2,19.5s.6,4.7.8,6.5c.8,7.6-.3,6.3-1.2,12.1s.6,3.1.2,5.2-2,3-2.3,3.8c.5-2-.9-4.3-.8-6,.1-1.8,1.7-3,1.6-5.7s-2.8-8.3-3.3-11.8c-3.8-1-5.4,4.7-6.1,4.9-4.9,1.2,1.4-10.3,1.2-11.7s-1.4-2.1-1.6-3.3c-.5-3.4.2-6.9-1.8-10.3s-3-2.1-3.1-2.7,0-5.2,0-5.5c.2-1.3,1.6-2.2,1.6-3.3s-1.9-2.2-1.7-4,1.8.4,1.7-3.3-1.8-9.5-2.5-14.2l3.2,1.6c1.6,7.3,5.3,14.3,5.7,21.9,2.3.5,1.7-1.1,1.7-2.9,0-8-3.6-16.9-7.3-23.9.1-.2-.1-.7,0-.8.3-.3,2,.7,1.6-1.1-1-3.9-4-6.1-6.4-8.6s-.5-1.2-3.2-3.2c0,.8.2,3,0,3.2-1.5,1.8-1.4-2.1-2.4-1.6-.6,2.7,3.4,6.5,3.3,8.5s-1.5.3-1.7,1c-.6,2.4.2,6.6,0,9.5s-.4,3-1.5,2.9v-15c0-2.1-3.7-11.3-3.2-11.7,2,.3,4.1,2.1,5.7,3.2.1-1,.6-3.5.4-4.1s-1.6-1.1-2-1.6v-3.2c1.4-.3,2,1,3.2,1.6Z"/>
            <path class="st7" d="M322.3,124.5c2,.7,5,.2,6.5,3.2-.5-.2-2.7-.5-3.7-.7s-1.2,1.8-1.2,1.9c0,1.2,2.7.5,3.6,1.1,3.2,1.9,4.3,5.8,6.1,8.2-.5-.2-.9.5-.8.8l-4.5-3.2c-.3,1.3,1,2.8,1.2,4,1.6,7.3,2.8,14.8,2.4,22.3l-1.6,7.7v-17.4c0-5.3-3.6-13-4.9-18.2s.8-.3.4-.8c-.6-.9-4.7-4.3-5.8-4.8s-6.8-2.6-4.4.7c-1-.3-7.9-.5-3.3-1.6.9-2-1.1-1.4-1.3-1.8s.4-1.3-.2-1.9c-1.4-1.2-4.1-.7-4.9-2.8,7.4.7,9.1.8,16.2,3.2Z"/>
            <path class="st5" d="M328.8,127.8c6.3,2.3,7.5,5,9.7,10.5-1.2-.6-1.8-1.9-3.2-1.6v3.2c-.4-.5-1-.7-1.6-1.6-1.8-2.4-2.9-6.3-6.1-8.2s-3.7,0-3.6-1.1,1-1.9,1.2-1.9c1,.2,3.2.5,3.7.7Z"/>
            <path class="st5" d="M312.5,119.7c1.6.2,3.3-.1,4.9,0,1.1,1.9,3.6,2.8,5.7,3.3l-.8,1.6c-7.2-2.4-8.8-2.5-16.2-3.2s-3-.7-4.1-.8c.5-1.4,1-2.8,0-4.1,3.6.9,6.6,2.8,10.6,3.2Z"/>
            <path class="st5" d="M345,152.1c-1.1-2.1-3.7-7.6-4.1-9.7s-.5-4.2.8-4l3.3,13.8Z"/>
            <path class="st6" d="M170.5,181.2c1-.8,2.6-2.5,4.1-1.2-1.1,1.1-2.4,2-3,3.5-1.3,3-2,11.3-3.1,13.2s-2,1.2-2.8,1.6c0-5.1.8-13.6,4.9-17Z"/>
            <path class="st13" d="M177.8,174c-2.2,1-6.5,2.2-8.3,3.3s-.5,1.5-.6,1.6c-.2.2-1.5,0-2,.8s0,4.9-2,3.3.2-1.5,0-1.6l-.8-5.7c3.5.7,6.6-1,9.7-1.6s3.2-1,4.1,0Z"/>
            <path class="st10" d="M177.8,174h.8c-2.8,2-4.8,4.7-8.9,4.9h-.8c0,0-.3-1,.6-1.6,1.8-1.1,6.1-2.2,8.3-3.3Z"/>
            <path class="st7" d="M294.7,115.6c3.1,0,4.4,0,7.3.8,1,1.3.5,2.6,0,4.1-6-.7-7.7-2.4-12.2-3.2-.7-2.5,2.6-1.6,4.9-1.6Z"/>
            <path class="st17" d="M347.4,298.8c-.6,3-.2,2.7,0,4.9s-.1,1.7,0,2.4c-1.1-.1-2.2,0-3.2,0,0-.1-.1-1.2,0-2.4s1.5-2.4-1.6-3.6l4.9-1.2Z"/>
            <path class="st7" d="M275.2,116.4l1.6,2.4c-2.8.8-6.4,1.3-9.3.8s-2.5-.9-1.2-2.4c.4,0,1.4-1.1,2.4-.8v-.8s-3.2-.8-3.2-.8c.3,0,.5,0,.8,0,4.6.1,5.6,1.1,8.9,1.6Z"/>
            <path class="st10" d="M275.2,116.4c0-1.2,1.1-.7,2-.8,2.1-.2,5.2-.5,7.2-.5s5.4,0,4.6,2.1c-4.6-.5-8.8,0-13.8-.8Z"/>
            <path class="st6" d="M265.5,114.8l3.2.8v.8c-1-.3-2,.8-2.4.8-2,.3-8.4.8-7.3-1.6,2.6-.5,3.7-.8,6.5-.8Z"/>
            <path class="st7" d="M191.6,178c-.5,1-2,4.4-2.4,5.7s-.5,2.3-.8,3.2c-2.1-.2-1.5-1.6-2.5.3s-2.2,2.7-2.7,3.8c-1,1.9-3.2,9.5-4.7,10.3-3,1.7-3.4-.5-3.1-3.1.4-.1,1.4.2,1.6,0s0-1.1,0-1.6c4.2-1.5,3.9-7.2,4.9-11.3s1.1-2,.8-3.2c.8-.7.9-1.6,2.4-2.4s4.3-1.9,6.5-1.6Z"/>
            <path class="st7" d="M261.4,140.7c-4.6-.5-3.2-13-8.5-12.2s-.8,3.1-2.9,2.5c-1.2-2.2,2.3-7.6,3.9-6.3s0,1.2.2,1.4c1.7,1.3,2-2.4,3.6-3.1,2.3-.5.7,2.8,1.2,3.2s3.2-.3,4.3,0-1,2,3,.8c.9,1.5,1.1,3.4,1.6,4.9-1.9.1-2.8-.9-2.1,1.7s2.2,4.6,2.1,7.2c-2.6-2.3-3.4-5.3-5.7-8.1s-.6-1.8-1.6-1.6c-.3,3.5,0,6.4.8,9.7Z"/>
            <path class="st6" d="M266.3,126.9c.3,0,.6-.9,1.9-.9s7.7.8,8.1,1c1.2.4,1.4,3.9,3.7,4.4-3.8,3.4-6.7,6.1-5.7,11.7-3.4.9-.2-4.3-2.4-4.9l-.8,6.5c-2.9-1.2-.8-4.2-1-6.7s-1.5-4.3-2.3-6.3-.8-3.4-1.6-4.9Z"/>
            <path class="st6" d="M354.7,247.7c-.2.5-1.9,2.3-2.5,2.8l-12.1,7.8c.3-2.5-.2-5.5,0-8.1s.4-1.7.8-2.4c1.4,1.3,4.2.4,2.8,4.8,1.4-2.8,5.7-1.5,6-1.7.5-.3,4.8-7.7,5.8-8.8-.5,1.5-.4,4.6-.8,5.7Z"/>
            <path class="st10" d="M345,159.4c3.8,6.9,7.4,15.9,7.3,23.9s.7,3.4-1.7,2.9c-.4-7.5-4.1-14.6-5.7-21.9-.5-2.3-1.4-2.7,0-4.9Z"/>
            <path class="st7" d="M313.3,141.5c0,3-3.8,2.8-5.8,4.4s-1,3.9-4.8,2.9c1.8-4.1,5.9-7.5,10.5-7.3Z"/>
            <path class="st10" d="M340.1,148.8c2.4,2.5,5.5,4.7,6.4,8.6.5,1.9-1.3.9-1.6,1.1-2.3-2.9-5.3-5.6-4.9-9.7Z"/>
            <path class="st10" d="M315.8,129.4c-2.4-3.3,3.6-1.1,4.4-.7,1.1.5,5.2,3.9,5.8,4.8s-.5.8-.4.8c-2.9-2.5-6-3.9-9.7-4.9Z"/>
            <path class="st10" d="M262.2,132.6v9.7s-.8,0-.8,0c0-.5.1-1.2,0-1.6-.8-3.4-1.1-6.2-.8-9.7,1-.2,1.1,1,1.6,1.6Z"/>
            <path class="st10" d="M250.8,144c-.2.7-.8,3-.8,3.2l-3.2-8.1,4.1,4.9Z"/>
            <path class="st10" d="M329.6,139.9c-.3-1.2-1.5-2.8-1.2-4l4.5,3.2c.1.5,1.3,1.2.8,2.4-1.2.3-1.6-.5-2.4-.8l-.8-.8h-.8Z"/>
            <path class="st7" d="M328,183.7l.4-5.7c3.8,1.4,3.5,4.7-.4,5.7Z"/>
            <path class="st7" d="M262.2,147.2l2-4.8c3.3,1.6-.9,5.9-2,4.8Z"/>
            <path class="st7" d="M242.7,131c-1.5,1.4-4.3-1.8-3.2-4,1.8-.7,4.2,3.1,3.2,4Z"/>
            <path class="st7" d="M331.2,140.7c-.3-.1-.6-.6-.8-.8l.8.8Z"/>
            <path class="st4" d="M237,144l-.6-.5c0-.4.5-.2.6-.4v.8Z"/>
            <path class="st4" d="M340.1,258.2c0,.2-.6,1.3-.8,2.4-.9,5.2-5.2,14.4-4.9,18.2s1.9,3.5,4.1,4.4c-.1.6,0,1.7.8,1.6,0,.5,0,1.1,0,1.6-1.3,1.3-5,.4-5.6.9-1.2.9,0,9.4-7.4,7.2,1.4-8.3,2.5-14.8,1.7-23.2s-.9-3.1,1.5-2.7c.9,7.9,7-1.4,0-3.2-.2-1.5-.5-4.8-.8-5.7,2.6-.3,3.5-4,5.3-5.7s4.3-2.6,6.1-4.1c-.2,2.6.3,5.6,0,8.1Z"/>
            <path class="st7" d="M188.3,159.4c1.4,1.2-1.1,1.8-1.5,2.1-3.2,2.4-7.5,5.1-11.4,6-.6-2.8,3.1-1.8,4.6-2.7s7-6.6,8.4-5.4Z"/>
            <path class="st7" d="M189.6,158.6c.5.3.5.5,0,.8v-.8Z"/>
            <path class="st13" d="M329.6,268.8c-.1-1,.2-2.2,0-3.2,7,1.9.9,11.1,0,3.2Z"/>
            <path class="st4" d="M181.8,185.3c-4.2,3.3-4.4,6.7-4.9,11.3-.4.1-1.4-.2-1.6,0s0,1.1,0,1.6c-.6.2-3,1.4-3.2,1.6,1.8-2.4,3.4-12.5,4.4-13.8s2.6-.6,3.6-1.2,1.4-1.9,2.5-2.8c.2,1.2-.6,2.3-.8,3.2Z"/>
            <circle class="st6" cx="180.2" cy="177.2" r="1"/>
            <path class="st6" d="M182.2,175.6c.5.3.5.5,0,.8v-.8Z"/>
            <path class="st6" d="M178.2,178c.5.3.5.5,0,.8v-.8Z"/>
            <rect class="st6" x="222" y="137.9" width="6.5" height=".8" transform="translate(86.9 363.5) rotate(-90)"/>
            <path class="st4" d="M174.5,249.3c.2,1.1-.4,2.2-1.6,2.4v-2.4s1.6,0,1.6,0Z"/>
            <path class="st5" d="M358.8,212c-1.5-7.8-3-10.9-3.2-19.5,3.8,3.1,2.8,8.5,3.3,12.5s3.2,3.9,0,6.9Z"/>
            <path class="st5" d="M359.6,174.8c-3.7-1-2-1.6-1.6-4.9l1.6,4.9Z"/>
            <polygon class="st5" points="358 169.1 357.2 169.1 356.4 164.2 357.2 164.2 358 169.1"/>
            <path class="st17" d="M339.3,260.7c2.3-.5,1.6,1.2,1.6,3.2s-.6,3.2-.8,4.9c-.7,4.8-.6,8.9-1.6,14.6-2.3-1-4-1.7-4.1-4.4s4-13.1,4.9-18.2Z"/>
            <path class="st7" d="M340.9,263.9c4.6,1.5,6.6,6.5,0,6.5,0-.7,0-1.4-.8-1.6.2-1.7.8-2.9.8-4.9Z"/>
            <path class="st11" d="M340.9,270.4c.5,6.1-1,9.3-1.6,14.6-.8,0-.9-1-.8-1.6,1.1-5.7,1-9.7,1.6-14.6.8.2.8.9.8,1.6Z"/>
            <path class="st4" d="M175.3,203.1c.6,1.5-1.1,2.7-1.2,3.6-.2,1.6,2,5.9-1.2,5.3.4-2.2-1.3-8.9,2.4-8.9Z"/>
          </g>
        </g>
        <g>
          <path class="st5" d="M418.9,370.9c3.5,2,4.2,1.8,8.1,3.2,6,2.2,12,4.8,17.9,7.3l4.9,3.8c0,15.9-.1,31.8,0,47.7,0,2.7,0,5.3,0,8,0,18,0,36,0,53.9h-11.4c.8-15.7,0-32.7,0-48.6s0-5.4,0-8.1c3.3-1.4,4.7-8.2,0-7.3,0-1.4,0-2.7,0-4.1,0-13.4.2-26.9-.2-40.4-3.1-1.4-5.2-3.6-8.2-5.2-7.6-3.8-16.5-5.4-24.1-8.8.9-2.4.9-4.8.8-7.3,3.3,1,6.1,3.8,9,5.2s2.9.3,3.2.4Z"/>
          <path class="st11" d="M444.9,381.4c5.2,2.2,7.2,3.1,12.3,6s2.3.3,2.3.5v109.8l-364.5.4c112.1,1.1,224.4-.8,336.5,0l2.8-1.6c1.4,0,2.7,0,4.1,0,0-.5,0-1.1,0-1.6h11.4c0-18,0-36,0-53.9,0-2.7,0-5.3,0-8,0-15.9,0-31.8,0-47.7l-4.9-3.8Z"/>
          <path class="st13" d="M66.6,493.3c3.5.1,6.5,3.4,10.1,3.3h177.4c.8,0,1.6,0,2.4,0h8.9c.5,0,1.1,0,1.6,0h119.3l.8-.4-.8-.4c-.2-1.1,2.9-1.1,3.2-.8,1.7,1.2-.5,1.5,4.9,1.6s6.5,0,9.7,0,.5,0,.8,0,.5,0,.8,0c1.9,0,3.8,0,5.7,0,7.5,0,15.2.3,22.7,0l-2.8,1.6c-112.2-.8-224.4,1.1-336.5,0-6.9,0-17.6,1-23.9,0s-5.4-2.6-7.8-3.2c.5-1.6,1.7-1.7,3.2-1.6Z"/>
          <path class="st8" d="M438.4,430.9c0,2.4,0,4.9,0,7.3s0,5.4,0,8.1c-4.2,4.4-3.5,12.1-5.9,17.2s-2.8,2-3.7,3.6-.6,4.3-1.2,6.1c-1,2.8-3.1,5-4.2,7.2s-.3,2.9-.9,4c-1.1,2.2-4.1,1.4-4.4,1.7s.6,6.8-2.6,8.7-4.4-1.2-3.9,1.8c-1.9,0-3.8,0-5.7,0h-.8c-.3,0-.5,0-.8,0,2.9-1.8,2.1-9.4,2.4-9.7s3.5.7,4.5-.8.2-2.8.8-4.1c2.3-4.6,4.1-10.9,5.7-13.8s2.6-1.4,3.5-3c1.7-3.4,1.8-9.1,2.8-12.6s2.4-3.1,2.9-5.2-.3-6,.2-7.5,2.7-3.3,3.2-4.1c1.1-1.5,4.4-4,6-5.7s.9-2.5,2.1-3.2c0,1.4,0,2.7,0,4.1Z"/>
          <path class="st7" d="M389.7,494.9c-1.1-3.4,2.9-2.2,3.3-3.7s-3.1-3-.9-6.3,7.1-2.7,7.4-3-.8-2.8-.7-3.7c0-1.7,1.6-3,1.6-5.6s-4.4-9.9-.6-9.2,1.5,1.5,1.8,1.5c2,0,5.6-8.9-2.8-6.4-.6-2.3,3.2-7.3,3.1-8.4-.3-3-7.1-8.2,1-7.8l-1.6,3.2c3.5.6,6.1-1.7,8.9-3.2-.3,2.2,2.9,5,3.1,6.2s-3.5,6.4-3.1,8.4c9.5-1.5,5.7,8-.8,5.7.6,3.7,3.1,7,2.4,10.9s-1.5,2.2-1.6,3.3,1.1,3.4.8,3.6-2.1-.1-3.2.4-4,2.9-4.2,3.2c-1.9,2.5.9,5-.1,6.8s-3.7,3.1-5.2,2.9l-3.5,3c-5.4-.1-3.1-.4-4.9-1.6Z"/>
          <path class="st6" d="M427,439.8c-.5,1.5.3,5.2-.2,7.5s-2.4,3.6-2.9,5.2c-1,3.5-1.1,9.2-2.8,12.6s-2.8,1.7-3.5,3c-1.6,2.9-3.4,9.3-5.7,13.8s-.2,3.2-.8,4.1c-1,1.4-4.2.5-4.5.8s.5,7.9-2.4,9.7c-3.2,0-6.5,0-9.7,0l3.5-3c1.5.2,4.6-1.8,5.2-2.9,1-1.7-1.8-4.3.1-6.8s3.7-2.9,4.2-3.2c1.1-.6,3.1-.3,3.2-.4.3-.3-.9-2.5-.8-3.6s1.4-2.1,1.6-3.3c.7-3.9-1.8-7.2-2.4-10.9,6.5,2.4,10.3-7.2.8-5.7-.4-2,3.3-7.4,3.1-8.4s-3.4-4-3.1-6.2c1.3-.7,2-1.7,2.1-1.7.6,0,1,.9,1.1.9l-.8,2.4c4.7,1.6,5.3-2.2,5.7-2.4s1.8.2,2.6-.2c2.6-1.3,2.4-2.9,6.3-1.4Z"/>
          <path class="st8" d="M267.1,496.5c-.5,0-1.1,0-1.6,0,.4-3.1,1.7-8.7.7-11.6s-6.8-1.9-5.5-9.8,5.5-3.5,7.3-5.7.2-9.2,4-11l-4.9,38.1ZM263.9,480.2c4,2.5,5.5-5.6,2.7-6.4-3.6-1.1-4.4,5.3-2.7,6.4Z"/>
          <path class="st7" d="M418.1,441.4c.3-.3-1.5-8.1.8-6.1s.4,2.3,1.6,2c-.5-5.5,5.5-4,5.7-8.9,1.8,0,.2,3.1.9,3.9s4-.2,3.1,3.3c-.6.8-3.2,3.8-3.2,4.1-3.9-1.5-3.8.1-6.3,1.4s-2.4,0-2.6.2c-.4.3-.9,4.1-5.7,2.4l.8-2.4c.8,0,4.7.2,4.9,0Z"/>
          <path class="st10" d="M263.8,443.8c-.6,5.1-1.7,9.5-2.4,14.6-3.4-2.1-.9-7.6,0-10.5s.4-4.7,2.4-4.1Z"/>
          <path class="st8" d="M304.4,412.2c1.4,1.3-6.9,7.5-8.9,6.5l5.6-5.3,3.3-1.2Z"/>
          <path class="st6" d="M287.4,419.5c-.8.4-3.4,1.3-4.1.4,2.2-1.6,5-4.5,7.3-5.6s2.7-1.3,2.4.8c-1.5.5-3.3,3.2-4.1,3.7s-1.2.6-1.6.8Z"/>
          <polygon class="st6" points="386.4 496.5 386.4 495.7 387.2 496.1 386.4 496.5"/>
          <path class="st1" d="M438.4,494.9c0,.5,0,1.1,0,1.6-1.3,0-2.7,0-4.1,0-7.5.3-15.2,0-22.7,0-.5-3,2.4-.9,3.9-1.8,3.2-1.9,2.3-8.4,2.6-8.7s3.3.5,4.4-1.7.2-2.7.9-4c1.1-2.2,3.1-4.3,4.2-7.2s.1-4.2,1.2-6.1,2.8-1.6,3.7-3.6c2.3-5.1,1.7-12.8,5.9-17.2,0,15.9.8,32.9,0,48.6Z"/>
          <path class="st17" d="M438.4,430.9c4.7-.9,3.3,5.9,0,7.3,0-2.4,0-4.9,0-7.3Z"/>
          <path class="st1" d="M405.9,496.5c-.3,0-.5,0-.8,0h.8Z"/>
          <path class="st6" d="M282.1,420.3c.5.3.5.5,0,.8v-.8Z"/>
          <path class="st1" d="M263.9,480.2c-1.7-1.1-.9-7.5,2.7-6.4,2.8.8,1.3,8.9-2.7,6.4Z"/>
          <g>
            <path class="st1" d="M156.7,310.1c5.8.8,10.3.6,16.7.8s8.9,1.6,13.4.8c3,10,13.4,21.3,15.2,28.2s-.1,6.5.2,9.5c.9,7.9,3.7,12.8,6.5,19.9-1.4,1.7.8,3.9.8,6.1.1,9.7,1.2,20,1.6,29.6-6.4-.6,0,5.9-4.1,5.7.2-2.1-1-4.1-.9-6.1s1.7-2.6,1.7-4.4c-3.8.7-1.8-1.4-2.6-3.5s-3.1-5-2.9-8.5,1.6-2.2,1.4-3-2.3-1.3-3.1-2.6c-1.6-2.7.2-6.8-2.6-8.4.4,2-.8,4-.7,6,.2,8.4,2.5,23,4.1,31.6s.6,1.9.7,2.9l2.4-.4c0,1.7-1.7,3.3-1.6,4.9s2.1,2.8,1.6,3.6-2.2.2-2.9,1.6c-1.1,2.4.8,5.9-2,7.7,4.7-1.1,5.2-7.6,8.2-11.2s5.1-2.5,4.7-6.5-4.3-5.5-.8-7c.1.6,1.4,5,1.5,5.2.6.9,2.3.3,2.5.5.6.6-1.6,3.2-1.7,4.5,0,2,1.6,3,1.6,3.2,0,.7-3.7.5-3.2,6.5s4.1-4.2,5-5.5c4.2-5.8,8.8,4.5,10.4,2.7s-6.5-6.1-6.5-6.9,2.2-1.5,2.5-3.3c.5-3.5-5.2-6.9,0-9.3,7.8,13.3,14.6,19.6,24.8,30.8,3.7,4.1,6.7,11.7,12.6,12.2-.9,2.9-3.4,8.5,0,10.5.7-5,1.8-9.4,2.4-14.6.2-1.6-.2-3.3,0-4.9,3.9,1.7,3.7,4.8,6.1,6.5s2.8.7,2.9.8c.2.2-.8,3.3-.9,4.4s-.6,4.5.8,4.5c.4-4.8,2.7-9.5,3.2-14.3s-.9-3.9-.4-5.9c1.5-6.3,9.3-10.1,11.8-15.4.4-.2,1.3-.6,1.6-.8l4.8.4c-.4-.4-.6-1-.5-1.5,2.9-12.2,10.4-25.3,16.9-35.7,6.9-11,11.5-19.4,12.9-32.9,4.4,3.3,10.2,2.3,15.6,3.5,7.8,1.7,15.3,4.5,22.8,7.3s12.9,6,14.1,6.1,6-2.2,7.6-2.3,6.3.5,7.3.8c4.7,1.3,10.5,5.9,15.4,8.1,7.6,3.4,16.5,4.9,24.1,8.8s5.2,3.8,8.2,5.2c.3,13.4.1,26.9.2,40.4-1.2.7-1.3,2.3-2.1,3.2-1.7,1.7-4.9,4.3-6,5.7.9-3.5-2.6-2.8-3.1-3.3-.8-.8.9-4-.9-3.9-.2,4.9-6.2,3.5-5.7,8.9-1.2.2-.9-1.4-1.6-2-2.3-2-.5,5.8-.8,6.1s-4,0-4.9,0-.5-.9-1.1-.9-.8.9-2.1,1.7c-2.8,1.6-5.5,3.9-8.9,3.2l1.6-3.2c-8.1-.3-1.2,4.9-1,7.8s-3.7,6.1-3.1,8.4c8.5-2.4,4.8,6.4,2.8,6.4s-1.1-1.3-1.8-1.5c-3.8-.7.5,7.1.6,9.2s-1.5,3.9-1.6,5.6,1.1,3.3.7,3.7-6,.9-7.4,3c-2.2,3.3,1.1,5.3.9,6.3-.3,1.4-4.4.3-3.3,3.7-.4-.2-3.4-.2-3.2.8v.8h-119.3l4.9-38.1c-3.7,1.8-1.7,8.4-4,11s-6.4-.3-7.3,5.7,4.6,7.1,5.5,9.8-.3,8.5-.7,11.6h-8.9l4.5-36.5c-3.8.9-2.8,6.1-3.7,9.2-1.7,5.8-3.2,2.6-6.4,4.1s-2.1,6.6-1.2,8.5,5.1,3,5.3,3.8c.6,2.4,0,8.3-.8,10.8H76.7c-3.6.2-6.6-3.1-10.1-3.2,3.5-1.8.7-2.6-1.6-4.1,2.7.6,13.4,3.7,14.6,1.2s-1.4-1.5-2.2-1.8c-4.3-1.7-8.6-2.7-13.2-3.5,0-1.6,2.6-.3,4.1-1.2,2.3-1.4,5-8.9,4.1-11.7-12.8,2,1.9-8.7,0-14.6-1.6.5-3.9-.8-5.2-.6s-1.7,1.7-2.1,1.4.5-1.8-1.2-1.6c-3.9.4-1,1.1-5.8.1s-6.8-1.1-10.1-1.7c2.3-1.4,5.1-1.8,7.3-3.2,2.4,3.2,6,1.7,9.2-.1s6.5-4.9,7.1-5.9c1.4-2.5.5-5.8,1-8.7s4-9.4,2.9-11-3.5-1.1-4.5-2-1.7-3-2.7-4.2c-1.6-1.9-4.4-.6-.8-5.2-4.8-1.4-3.2,3.1-4.1,4s-3.9-.1-5.3,0-1.8.8-2,.8c-.5,0-1.1,0-1.6,0l2-6.4c5.5-2.1,3.9-7.4,6-10.2s3.2-1.7,4.5-2.8c6.7-6,12.6-12.8,19.5-18.6,3.4-2.9,9-5.5,11.8-8.5,3.1-3.4,3.8-9.4,6.5-13.4,5.6-.8,8.3-1.6,14.6-1.6s3.7-.5,7.9.6,3.1,0,3.4.2.2,5.7,2.1,6.4c.8-1.7,5.6-3.7,5.3-5.2-3.5-2.1-1.9-6-5.9-5.1s-6,4.2-5.5.6c.4-.2,1.5-1.2,2.4-1.6,2.4-1.3,2.7-2.2,4.1-3.2s1.4.2,1.9-.1c3-1.7,1.7-9.3,2.2-12.4,1-5.9,3.8-12.2,4-18.6,3.4-.7,2.5-1.4,2.5-4.6.6-.4,1.1-1.2,1.6-1.6,1.4-.8,7.8-1.4,8.1-1.6s0-1.2,0-1.6c1,0,2.3-.1,3.2,0ZM151.8,321.5c-2.3-.4-1.4.5-1.8,1.8-1,2.8-6.4,24.8-5.5,25.8s2.2,0,2.8-.8c1.9-2.5.8-8.7,1.3-11.7.9-4.8,3.9-9.8,3.2-15.1ZM145.3,363.6c-.4-3.1,4.4-2.3,4.1-4.5s-4.2-5.9-4.6-6-7.3,2.1-7.6,2.4c-2.6,2.4,5.9,1.5,6.5.8-1.5,2.9-1.4,4.1-.8,7.3-3.2.2-4.5,2.1-7.3,3.2s-4.9.9-6.5,1.6l-1.2-3.2c-.9.8-1.7,2-2.9,2.4s-6.4,1.5-8.1,1.6-10.7-.9-11.4,1.2,2.6,3.6,3.1,5.8.5,9.6.2,10c-1.3,1.2-7.7-2.9-2.4,6.5l4.5-5.7-.4,5.7c3.6,1,3.5-3.1,7.3-2.4l-6.5,4.9,8.9-.8c-.5,1.6-3,1.3-4.5,2.4s-1.3,2-2,2.9l2.4.4c-.8,2.1.7,4.7,2.4,3.2s-1.1-3.2,1.6-2.4l-5.7,7.3c3.9,1.4,4.4-2.9,4.9-3.2s2.4.8,2.4,1.2-1.5,1.1-1.6,2.5c-.6,6,4,11.1,5.5,16.4s1.2,8.4,2.2,12.4,3,5.8,3.5,8.7,0,7.2.2,7.5,4.1.8,4.4.8c2.7-.6,0-5.1-.3-6.9-1.2-9-5.1-17.8-5.7-26s.8-2.9.8-3.9-2.2-.7-2.3-2.6,2.7-2.3,2.3-4.3h-4.8c-.4-5.9-2.8-11.3-3.3-17l8.1-.8c.3,2.7-2.6,1.3-4.4,3.3s-1.8,2.8-1.3,3.2c2.3-.4,2.8,0,2.4,2.4.9,1,4.1-3.8,4-.4-2,1.6-5.6,2-5.7,5.3,3.9,1.4,4.4-2.9,4.9-3.2s2.3.6,2.4,1.2c.2,1-1.5,1.9-1.6,3.2-.4,6,3.6,10.4,5.2,15.8s1.6,9.6,2.9,14.2,2.6,4,3,6.7-1.4,8.8,4,9c3.6.2.5-5,.3-6.8-1.8-15.5-7.6-30.7-10.8-45.9s-3.7-17.3-1.4-29.8c3.5.9,8.1,1.2,11.8.8,2.1-.2,4-1.6,4.5-1.6,2.1-.2,12.1,1.2,11.4-2s-4.8-5.1-5.2-5.3c-4.1-2.4-6.6,1.1-10.2,2.5-.6-.5-1.5-1.6-1.6-1.6ZM197.3,360.4c-.3-.2-1.9-.2-2.5.5s-5.6,8.3-5.6,8.8c-.2,1.6,1.5,4.7,1.7,7.2.6,7.8-1.9,17.4-.8,24.3s4.1,6.8,4.8,2.5-.2-4.4,0-6.5c1.1-10.6.6-17.4.8-27.5s2-9.1,1.6-9.4ZM181,407.4c3.8,0,2.1-5.6,2.4-8.5,1.1-10.7.7-17.3.8-27.5,0-6.6,5.5-11.5-5.7-10.2-.4.3,1.7,5.5,1.4,6.8s-2.1,1.7-2.3,3.4,1.5,3.5,1.7,5.6c.9,8-2.1,19.3-.8,25.9s2.3,2.6,2.4,4.5ZM172.9,362c-.4-.4-5-.2-5.7,1.2s1.8,1.1,1.6,1.6c-.3,1-2.1,2.1-1.6,3.7,2.6,1,7.2-5,5.7-6.5ZM115.8,411.5c-2.3.8-1.5,5.3.7,4.8s4.2-6.4-.7-4.8ZM304.4,412.2l-3.3,1.2-5.6,5.3c2,1,10.3-5.2,8.9-6.5ZM120.1,417.9c-1.7-.9-7,2.9-5.7,4s6.9-2.9,5.7-4ZM211.5,430.1v.8c.5-.3.5-.5,0-.8Z"/>
            <path class="st6" d="M31.7,456c0,.8,0,1.6,0,2.4,5.1-1.1,10.6-1.8,15.8-.9s.2,2.2.4,2.5c1.7.3,4.2-2.6,5.5-1.4s-.2,1.3.6,1.4c1.9.4.9-1.7,1.7-1.7,1.2,0,3.5,1.4,5.2.9,1.7,3.9-5.7,10.9-5.7,12.6,0,3.2,5.3,1.6,5.7,2,1.5,1.5-1.7,9.2-3.6,10.6s-3.9.4-4.5,2.4c4.2.2,8.1,1.6,12.2,2.4,2.3,1.4,5.2,2.2,1.6,4.1-1.5,0-2.8,0-3.2,1.6-11.7-3.1-23.7-4.2-35.7-2.4,0-2.2,0-4.3,0-6.5,3.4-1.8,3.8-5.9,4.1-9.3s.5-12.7,0-16.2-3.1-.2-4.1-.5c0-1.1,0-2.2,0-3.2l4.1-.8ZM31.7,486c1.8,1.7,3.7-2.5,4.2-3.5,3.4-7,6-15.7,8-23.2-4.4,4.6-5.3,12-7.7,17.8s-4.8,8.6-4.4,8.9Z"/>
            <path class="st6" d="M54.4,419.5c.5,0,1.1,0,1.6,0-.3,4.3,7,7,7.8,8.1,1.4,2-2.3,7.6-2.7,10.4-1.1,7.1,1.6,9.2-5.9,14-2.2,1.4-5,1.8-7.3,3.2-1.8-.3-2.7-1.5-5.2-1.7-3.8-.3-7.4.9-11,1.7-.3-6,.2-12.2,0-18.3l1.6-6.9c1.2-1.7,2.1-4,3.2-5.7.9.9,4.7,1.9,3.2,3.2s-4.6-.2-2.4,1.6,2.3-1.5,2.4-1.6c.3-.2,2,.4,2.1-2.4s-1.7-2-.5-4.1l13-1.6Z"/>
            <path class="st8" d="M104.7,359.5c-2.7,4-3.4,10-6.5,13.4-2.8,3-8.4,5.6-11.8,8.5-6.9,5.8-12.8,12.6-19.5,18.6s-3.6,1.6-4.5,2.8c-2.1,2.8-.5,8.1-6,10.2l-2,6.4-13,1.6c1.5-2.6,4.2-3.4,3.2-7.3.3-.2.5-.6.8-.8.9-.5,2.8-.3,3.6-1.6s.7-4.8,2.8-8.1c5.5-8.4,21.3-20.7,30-25.9s4.2-1.5,5.7-3.6c2.3-3.2,2.7-9.6,6.5-12.6,5.1-2.1,6-1,10.6-1.6Z"/>
            <path class="st15" d="M31.7,455.2c0,.3,0,.5,0,.8l-4.1.8c0-7-1.6-18.5,2.4-23.9s2.8-2.2,3.2-2.8l-1.6,6.9c.3,6.1-.3,12.2,0,18.3Z"/>
            <path class="st15" d="M27.6,460c1,.2,3.9-.5,4.1.5.5,3.5.3,12.4,0,16.2s-.7,7.5-4.1,9.3c-.2-8.6,0-17.3,0-25.9Z"/>
            <path class="st15" d="M145.3,312.5v.8c-.6.5-1,1.2-1.6,1.6-1.3.9-2.2,1-3.2,1.6-1.4,4.9-2.8,4.2-3.2,5.5-.9,2.4-.5,6.7-1,9.3s-2.2,6.3-2.7,10.3.3,6.1-.4,8.9c-1.4,1-1.6,2-4.1,3.2,1.8-9.6,2.8-20.6,6.3-29.8s2.1-5.8,5.1-7.5c1.5-5,1.3-2.6,4.9-4.1Z"/>
            <path class="st7" d="M126.6,355.5c-.5,3.6,4.1-.3,5.5-.6,4-.9,2.4,3,5.9,5.1.3,1.5-4.5,3.5-5.3,5.2-1.9-.8-1.8-6.1-2.1-6.4s-2.4,0-3.4-.2c-4.2-1.2-3.8-.6-7.9-.6,1.9-1.8,5.1-1.5,7.3-2.4ZM131.9,357.1v.8c.5-.3.5-.5,0-.8Z"/>
            <path class="st7" d="M44.7,413.8c1,3.9-1.7,4.7-3.2,7.3s.6,1.6.5,4.1-1.9,2.2-2.1,2.4-.5,3.3-2.4,1.6,2.3-1.5,2.4-1.6c1.4-1.3-2.3-2.4-3.2-3.2,1.2-1.8,2.5-3.3,3.6-4.9,2.1-3.2-.5-2.7,4.5-5.6Z"/>
            <path class="st7" d="M82,377.4c5.9-6.5,2.5-12.2,12.2-16.2-3.8,3-4.2,9.4-6.5,12.6s-3.9,2.5-5.7,3.6Z"/>
            <path class="st7" d="M45.5,413c.5-4.6,1.3-8.7,6.5-9.7-2.1,3.3-1.8,6.4-2.8,8.1s-2.7,1.1-3.6,1.6Z"/>
            <path class="st6" d="M151.8,310.1c.5,0,1.1,0,1.6,0,0,.5.2,1.5,0,1.6-.3.2-6.7.8-8.1,1.6v-.8c2.2-.9,3.5-2.1,6.5-2.4Z"/>
            <path class="st7" d="M116.9,369.3c2.9,4.2,4.5,9.7,3.3,14.9s-4.8.9-4.1,4.2,4.3-1.5,5.7-1.2c.3,2.4.6,3.9.8,6.5.5,5.7,3,11.2,3.3,16.9h4.8c.4,2.1-2.4,2.5-2.3,4.4s2.3,2.2,2.3,2.6c0,1-.9,2.2-.8,3.9.6,8.2,4.6,17,5.7,26s3,6.3.3,6.9-4.2-.6-4.4-.8c-.3-.3,0-5.8-.2-7.5-.5-2.9-2.7-5.7-3.5-8.7s-1.2-8.7-2.2-12.4c-1.5-5.3-6.1-10.4-5.5-16.4s1.6-2.3,1.6-2.5c0-.4-1.8-1.7-2.4-1.2s-1,4.6-4.9,3.2l5.7-7.3c-2.7-.7-1.2,2.1-1.6,2.4-1.8,1.4-3.2-1.1-2.4-3.2l-2.4-.4c.7-.9,1.1-2.2,2-2.9,1.5-1.1,4-.8,4.5-2.4l-8.9.8,6.5-4.9c-3.8-.7-3.7,3.4-7.3,2.4l.4-5.7-4.5,5.7c-5.3-9.3,1.1-5.2,2.4-6.5s.1-8.7-.2-10c-.5-2.2-3.6-3.9-3.1-5.8s9-1,11.4-1.2Z"/>
            <path class="st8" d="M125,367.6c1.2-.5,1.9-1.6,2.9-2.4l1.2,3.2c1.6-.7,5.3-1.1,6.5-1.6-.5,1.3-.6,2.7-.8,4.1-2.3,12.4-1,18.1,1.4,29.8s9,30.4,10.8,45.9c.2,1.8,3.3,7-.3,6.8-5.5-.2-3.4-5.3-4-9s-2.4-4.5-3-6.7c-1.3-4.6-1.6-9.7-2.9-14.2s-5.6-9.8-5.2-15.8,1.7-2.2,1.6-3.2-1.8-1.7-2.4-1.2-1,4.6-4.9,3.2c0-3.2,3.7-3.6,5.7-5.3,0-3.3-3.2,1.4-4,.4.4-2.3,0-2.8-2.4-2.4-.5-.4.7-2.6,1.3-3.2,1.8-2,4.7-.6,4.4-3.3l-8.1.8c-.2-2.6-.6-4.1-.8-6.5s.4-9.9,1-12.4,3.3-3.9,2.3-7.1Z"/>
            <path class="st8" d="M47.9,455.2c3.3.6,6.8,1,10.1,1.7,4.7,1,1.9.3,5.8-.1s1,1.5,1.2,1.6c.4.3,1.3-1.3,2.1-1.4,1.3-.2,3.5,1.1,5.2.6,1.9,5.9-12.8,16.6,0,14.6.9,2.8-1.8,10.4-4.1,11.7s-4-.4-4.1,1.2c4.6.8,8.9,1.8,13.2,3.5.8.3,2.9.4,2.2,1.8-1.2,2.5-11.9-.6-14.6-1.2-4-.9-8-2.2-12.2-2.4.6-2,3-1.3,4.5-2.4s5.2-9.1,3.6-10.6-5.8,1.2-5.7-2,7.4-8.6,5.7-12.6c-1.7.6-4-.9-5.2-.9s.2,2.1-1.7,1.7-.2-1.1-.6-1.4c-1.4-1.2-3.8,1.7-5.5,1.4-.3-.3.5-2.3-.4-2.5-5.2-.9-10.7-.2-15.8.9,0-.8,0-1.6,0-2.4s0-.5,0-.8c3.6-.7,7.2-2,11-1.7s3.4,1.3,5.2,1.7Z"/>
            <path class="st8" d="M56,419.5c.2,0,.9-.7,2-.8s4.7.4,5.3,0c1-.8-.6-5.4,4.1-4-3.6,4.6-.8,3.3.8,5.2s1.8,3.5,2.7,4.2,4.2,1.6,4.5,2c1,1.6-2.5,8.3-2.9,11s.5,6.2-1,8.7-5.8,5.2-7.1,5.9c-3.2,1.8-6.8,3.4-9.2.1,7.5-4.8,4.8-6.9,5.9-14s4.1-8.4,2.7-10.4-8.1-3.7-7.8-8.1Z"/>
            <path class="st8" d="M211.1,375.8c1.2,3.4,4.1,9.8,4.1,13s-1,.8-.8,1.9,1.6,2.4,2.1,3.7c.9,2.5-1,4.8,2.8,4.1,0,1.9-1.5,2.3-1.7,4.4s1,4.6.9,6.9c3.5.6.4-3.7.9-5.2s2.7-1.4,4-1.3c.3.6.5,1.2.8,1.6-5.2,2.4.5,5.7,0,9.3s-2.5,3-2.5,3.3c0,.8,8.3,4.8,6.5,6.9s-6.3-8.5-10.4-2.7-4.6,11.9-5,5.5,3.2-5.7,3.2-6.5-1.7-1.2-1.6-3.2,2.3-3.9,1.7-4.5-1.9.4-2.5-.5-1.4-4.6-1.5-5.2-.8-2.1-.8-2.4c-.4-9.6-1.5-19.9-1.6-29.6s-2.2-4.4-.8-6.1c.9,2.2,1.6,4.1,2.4,6.5Z"/>
            <path class="st7" d="M181,407.4c-.1-1.9-2.1-2.6-2.4-4.5-1.3-6.7,1.7-18,.8-25.9-.2-2.1-1.9-4-1.7-5.6s2.1-2.3,2.3-3.4-1.8-6.5-1.4-6.8c11.2-1.3,5.7,3.6,5.7,10.2-.1,10.2.3,16.9-.8,27.5-.3,2.9,1.4,8.4-2.4,8.5Z"/>
            <path class="st8" d="M197.3,360.4c.4.3-1.6,7.7-1.6,9.4-.2,10.1.3,16.9-.8,27.5-.2,2.1.3,4.5,0,6.5-.8,4.3-4.3.6-4.8-2.5-1.1-6.9,1.4-16.5.8-24.3-.2-2.5-1.8-5.6-1.7-7.2s5.1-8.1,5.6-8.8,2.2-.7,2.5-.5Z"/>
            <path class="st7" d="M254.1,496.5c.9-2.5,1.4-8.4.8-10.8s-4.3-1.6-5.3-3.8-1-7.5,1.2-8.5c3.3-1.5,4.8,1.6,6.4-4.1s0-8.4,3.7-9.2l-4.5,36.5c-.8,0-1.6,0-2.4,0ZM256.5,475.4c-5.6-2-6.5,5.4-2.7,6.4s2.7-4.2,2.7-6.4Z"/>
            <path class="st7" d="M143.7,315c0,3.1,1,3.8-2.5,4.6-.2,6.4-2.9,12.7-4,18.6s.8,10.6-2.2,12.4c-.5.3-1.7,0-1.9.1.7-2.8,0-6.5.4-8.9.5-4,1.9-6.8,2.7-10.3s.2-6.9,1-9.3,1.8-.6,3.2-5.5c1.1-.6,2-.7,3.2-1.6Z"/>
            <path class="st7" d="M142.9,363.6c.6,0,2-.1,2.4,0s1,1.1,1.6,1.6c1.2,1,4.1,3.7,4.1,4.9-.5,0-2.4,1.4-4.5,1.6-3.6.4-8.2.1-11.8-.8.2-1.4.3-2.7.8-4.1,2.8-1.1,4.1-3.1,7.3-3.2Z"/>
            <path class="st8" d="M151,370.1c0-1.2-2.9-3.9-4.1-4.9,3.6-1.3,6.1-4.9,10.2-2.5s5.1,5,5.2,5.3c.7,3.2-9.3,1.8-11.4,2Z"/>
            <path class="st6" d="M125,367.6c1,3.1-1.7,4.9-2.3,7.1s-1.3,9.9-1,12.4c-1.4-.3-5.1,3.9-5.7,1.2s3.8-3,4.1-4.2c1.2-5.1-.4-10.7-3.3-14.9,1.8-.2,6.7-1.1,8.1-1.6Z"/>
            <path class="st8" d="M151.8,321.5c.7,5.3-2.3,10.3-3.2,15.1s.6,9.2-1.3,11.7-2.4,1.3-2.8.8c-.9-.9,4.5-22.9,5.5-25.8s-.4-2.2,1.8-1.8Z"/>
            <path class="st8" d="M142.9,363.6c-.6-3.2-.7-4.4.8-7.3-.6.7-9.1,1.6-6.5-.8s7.2-2.5,7.6-2.4,4.4,5.2,4.6,6c.4,2.2-4.5,1.3-4.1,4.5-.4-.1-1.8,0-2.4,0Z"/>
            <path class="st7" d="M172.9,362c1.5,1.5-3.1,7.5-5.7,6.5-.5-1.6,1.3-2.7,1.6-3.7s-2.4,0-1.6-1.6,5.3-1.6,5.7-1.2Z"/>
            <path class="st7" d="M115.8,411.5c4.9-1.6,3.5,4.2.7,4.8s-3.1-4-.7-4.8Z"/>
            <path class="st8" d="M120.1,417.9c1.3,1.1-4.6,5-5.7,4s4-4.9,5.7-4Z"/>
            <path class="st8" d="M211.5,430.1c.5.3.5.5,0,.8v-.8Z"/>
            <path class="st7" d="M211.9,407.4c-3.5,1.5.6,4.5.8,7,.4,4.1-2.7,4.1-4.7,6.5-3,3.6-3.6,10.2-8.2,11.2,2.8-1.9.9-5.3,2-7.7s2.8-1.5,2.9-1.6c.6-.8-1.5-2.4-1.6-3.6s1.5-3.2,1.6-4.9l-2.4.4c-.1-1-.5-1.9-.7-2.9-1.6-8.6-3.9-23.2-4.1-31.6,0-2,1.1-3.9.7-6,2.8,1.6,1,5.6,2.6,8.4s3,2,3.1,2.6-1.3,1.7-1.4,3c-.2,3.5,1.9,5.8,2.9,8.5s-1.2,4.1,2.6,3.5c0,1.9-1.6,2.3-1.7,4.4s1.1,4,.9,6.1c4,.2-2.3-6.2,4.1-5.7,0,.3.7,1.6.8,2.4Z"/>
            <path class="st13" d="M31.7,486c-.4-.3,3.9-7.5,4.4-8.9,2.4-5.8,3.3-13.2,7.7-17.8-1.9,7.5-4.6,16.3-8,23.2s-2.4,5.2-4.2,3.5Z"/>
            <path class="st1" d="M131.9,357.1c.5.3.5.5,0,.8v-.8Z"/>
            <path class="st1" d="M223.2,403.3c-1.3-.1-3.6-.2-4,1.3s2.6,5.8-.9,5.2c.1-2.3-1.1-4.6-.9-6.9s1.7-2.6,1.7-4.4c-3.8.7-1.9-1.6-2.8-4.1s-2-2.2-2.1-3.7.8-1.8.8-1.9c2.8,3.1,4,8.4,5.8,11.6s1.7,1.8,2.3,2.9Z"/>
            <path class="st13" d="M256.5,475.4c0,2.2.9,7.3-2.7,6.4s-2.9-8.3,2.7-6.4Z"/>
          </g>
        </g>
      </g>
    </g>
  </g>
</svg>