<?xml version="1.0" encoding="UTF-8"?>
<svg id="Layer_1" data-name="Layer 1" xmlns="http://www.w3.org/2000/svg" version="1.1" viewBox="0 0 500 560">
  <defs>
    <style>
      .cls-1 {
        fill: #f5f5f5;
        stroke-width: 0px;
      }
    </style>
  </defs>
  <path class="cls-1" d="M27.25,489.52c55.31-63.22,110.61-126.45,166.08-189.85C134.89,223.25,76.5,146.88,17.93,70.3c.66-.1,1.07-.18,1.49-.22.26-.03.53,0,.8,0,47.42,0,94.84,0,142.27-.03,1.54,0,2.53.42,3.48,1.69,27.6,36.57,55.25,73.11,82.89,109.66,5.31,7.02,10.62,14.04,15.93,21.06.4.52.82,1.03,1.34,1.67.53-.56.99-1.02,1.42-1.51,38.21-43.68,76.41-87.35,114.58-131.06.98-1.12,1.97-1.51,3.42-1.51,22.21.04,44.42.03,66.63.03.64,0,1.28,0,1.91,0,.06.13.13.27.19.4-51.7,59.1-103.41,118.2-155.2,177.41,60.97,80.62,121.86,161.12,182.97,241.93-.82.05-1.25.11-1.68.11-46.62,0-93.24,0-139.87.04-1.32,0-2.04-.52-2.78-1.49-17.52-22.96-35.07-45.89-52.61-68.83-19.04-24.9-38.09-49.8-57.13-74.69-.4-.53-.82-1.04-1.37-1.72-.51.52-.98.94-1.39,1.42-19.95,22.78-39.89,45.57-59.83,68.36-21.96,25.1-43.93,50.19-65.86,75.31-1,1.14-1.99,1.66-3.56,1.65-22.21-.05-44.42-.04-66.63-.04-.64,0-1.28,0-1.92,0l-.19-.41ZM397.91,447.28c-.69-.97-1.06-1.51-1.46-2.04-24.9-32.93-49.79-65.85-74.69-98.78-35.36-46.75-70.72-93.5-106.07-140.26-23.77-31.43-47.55-62.87-71.3-94.32-.74-.97-1.44-1.52-2.77-1.51-12.94.06-25.88.03-38.81.04-.49,0-.99.1-1.75.18.66.9,1.14,1.6,1.65,2.27,35,45.77,70.01,91.53,105.01,137.29,49.83,65.15,99.66,130.31,149.46,195.48.9,1.18,1.8,1.67,3.31,1.66,11.67-.06,23.34-.04,35.01-.04.65,0,1.3,0,2.4,0Z"/>
</svg>