<?xml version="1.0" encoding="UTF-8"?>
<svg id="Layer_1" xmlns="http://www.w3.org/2000/svg" version="1.1" viewBox="0 0 500 500">
  <!-- Generator: Adobe Illustrator 29.3.1, SVG Export Plug-In . SVG Version: 2.1.0 Build 151)  -->
  <defs>
    <style>
      .st0 {
        fill: #f5f5f5;
      }
    </style>
  </defs>
  <path class="st0" d="M11.6,474.3c59.2-67.7,118.4-135.4,177.8-203.2C126.8,189.2,64.3,107.5,1.6,25.5c.7-.1,1.1-.2,1.6-.2.3,0,.6,0,.9,0,50.8,0,101.5,0,152.3,0,1.6,0,2.7.4,3.7,1.8,29.5,39.1,59.1,78.3,88.7,117.4,5.7,7.5,11.4,15,17.1,22.5.4.6.9,1.1,1.4,1.8.6-.6,1.1-1.1,1.5-1.6,40.9-46.8,81.8-93.5,122.6-140.3,1-1.2,2.1-1.6,3.7-1.6,23.8,0,47.5,0,71.3,0h2c0,.1.1.3.2.4-55.3,63.3-110.7,126.5-166.1,189.9,65.3,86.3,130.4,172.5,195.9,259-.9,0-1.3.1-1.8.1-49.9,0-99.8,0-149.7,0-1.4,0-2.2-.6-3-1.6-18.8-24.6-37.5-49.1-56.3-73.7-20.4-26.7-40.8-53.3-61.2-79.9-.4-.6-.9-1.1-1.5-1.8-.5.6-1,1-1.5,1.5-21.4,24.4-42.7,48.8-64,73.2-23.5,26.9-47,53.7-70.5,80.6-1.1,1.2-2.1,1.8-3.8,1.8-23.8,0-47.5,0-71.3,0h-2.1l-.2-.4h0ZM408.3,429c-.7-1-1.1-1.6-1.6-2.2-26.7-35.2-53.3-70.5-79.9-105.7-37.8-50-75.7-100.1-113.5-150.1-25.4-33.6-50.9-67.3-76.3-101-.8-1-1.5-1.6-3-1.6-13.9,0-27.7,0-41.5,0-.5,0-1.1.1-1.9.2.7,1,1.2,1.7,1.8,2.4,37.5,49,74.9,98,112.4,147,53.3,69.7,106.7,139.5,160,209.2,1,1.3,1.9,1.8,3.5,1.8,12.5,0,25,0,37.5,0h2.6Z"/>
</svg>